{"glyphs":{"0":{"ha":869,"x_min":58,"x_max":812,"o":"m 435 60 q 536 134 509 60 q 563 505 563 208 q 536 876 563 801 q 435 951 509 951 q 335 878 362 951 q 308 505 308 804 q 335 134 308 208 q 435 60 362 60 m 435 -20 q 156 116 253 -20 q 58 505 58 251 q 156 895 58 760 q 435 1031 253 1031 q 714 895 617 1031 q 811 505 811 760 q 714 116 811 251 q 435 -20 617 -20 z "},"1":{"ha":869,"x_min":153,"x_max":745,"o":"m 172 0 l 172 82 l 342 82 l 342 901 l 153 777 l 153 878 l 381 1031 l 574 1031 l 574 82 l 745 82 l 745 0 l 172 0 z "},"2":{"ha":869,"x_min":83,"x_max":758,"o":"m 165 762 l 92 762 l 92 981 q 239 1018 166 1006 q 387 1031 312 1031 q 657 952 560 1031 q 755 732 755 873 q 701 552 755 631 q 496 363 648 472 l 242 178 l 674 178 l 674 297 l 758 297 l 758 0 l 83 0 l 83 165 l 218 269 q 449 494 391 401 q 506 711 506 587 q 462 890 506 829 q 335 951 418 951 q 220 903 263 951 q 165 762 176 854 z "},"3":{"ha":869,"x_min":87,"x_max":790,"o":"m 107 983 q 263 1019 188 1007 q 412 1031 339 1031 q 665 965 576 1031 q 753 778 753 900 q 702 629 753 686 q 553 553 651 572 q 731 463 673 532 q 790 273 790 393 q 689 56 790 132 q 396 -20 588 -20 q 248 -6 324 -20 q 87 35 171 7 l 87 257 l 161 257 q 216 110 168 161 q 347 60 263 60 q 491 117 440 60 q 541 279 541 174 q 489 449 541 389 q 339 509 436 509 l 298 509 l 298 590 l 330 590 q 465 636 420 590 q 510 774 510 682 q 468 906 510 860 q 346 951 425 951 q 232 908 274 951 q 181 781 190 864 l 107 781 l 107 983 z "},"4":{"ha":869,"x_min":51,"x_max":819,"o":"m 798 0 l 296 0 l 296 82 l 431 82 l 431 267 l 52 267 l 52 345 l 433 1031 l 662 1031 l 662 354 l 819 354 l 819 267 l 662 267 l 662 82 l 798 82 l 798 0 m 431 354 l 431 846 l 160 354 l 431 354 z "},"5":{"ha":869,"x_min":102,"x_max":775,"o":"m 705 1013 l 705 835 l 217 835 l 217 612 q 307 665 258 647 q 412 682 357 682 q 677 588 580 682 q 775 330 775 493 q 677 73 775 165 q 404 -20 580 -20 q 256 -6 330 -20 q 102 36 182 7 l 102 257 l 176 257 q 223 109 180 157 q 350 60 266 60 q 483 126 439 60 q 526 330 526 193 q 484 532 526 465 q 355 599 441 599 q 272 577 309 599 q 205 511 236 556 l 144 511 l 144 1013 l 705 1013 z "},"6":{"ha":869,"x_min":79,"x_max":803,"o":"m 308 600 q 396 653 347 635 q 503 671 446 671 q 723 580 644 671 q 803 330 803 489 q 713 72 803 163 q 458 -20 623 -20 q 175 105 271 -20 q 79 473 79 231 q 185 890 79 749 q 503 1031 292 1031 q 620 1021 557 1031 q 755 990 683 1010 l 755 811 l 681 811 q 624 916 666 880 q 514 951 581 951 q 357 869 406 951 q 308 600 308 786 m 444 60 q 533 119 507 60 q 560 325 560 178 q 533 531 560 471 q 444 590 507 590 q 354 531 381 590 q 328 325 328 471 q 354 119 328 178 q 444 60 381 60 z "},"7":{"ha":869,"x_min":98,"x_max":766,"o":"m 766 840 l 390 0 l 266 0 l 632 821 l 182 821 l 182 684 l 99 684 l 99 1013 l 766 1013 l 766 840 z "},"8":{"ha":869,"x_min":64,"x_max":803,"o":"m 581 539 q 746 450 690 519 q 803 269 803 381 q 708 55 803 130 q 434 -20 613 -20 q 160 55 255 -20 q 64 269 64 130 q 121 450 64 381 q 286 539 178 519 q 143 621 191 564 q 95 766 95 678 q 182 963 95 895 q 434 1031 269 1031 q 686 963 599 1031 q 772 766 772 895 q 725 621 772 678 q 581 539 677 564 m 536 764 q 513 911 536 871 q 434 951 490 951 q 354 911 377 951 q 332 764 332 871 q 354 617 332 657 q 434 578 377 578 q 514 617 491 578 q 536 764 536 657 m 560 281 q 532 452 560 405 q 434 498 503 498 q 336 452 363 498 q 308 281 308 405 q 336 107 308 155 q 434 60 364 60 q 532 107 503 60 q 560 281 560 155 z "},"9":{"ha":869,"x_min":67,"x_max":791,"o":"m 426 951 q 337 892 363 951 q 310 686 310 833 q 337 480 310 540 q 426 421 363 421 q 516 480 489 421 q 543 686 543 540 q 516 892 543 833 q 426 951 489 951 m 562 412 q 473 358 522 376 q 366 340 424 340 q 148 431 227 340 q 68 681 68 522 q 157 940 68 849 q 412 1031 246 1031 q 694 905 598 1031 q 791 538 791 780 q 684 121 791 262 q 368 -20 577 -20 q 250 -9 313 -20 q 115 21 186 1 l 115 200 l 189 200 q 247 95 204 131 q 357 60 289 60 q 513 143 464 60 q 562 412 562 226 z "}," ":{"ha":435,"x_min":0,"x_max":0,"o":""},"!":{"ha":549,"x_min":159,"x_max":391,"o":"m 159 110 q 193 201 159 163 q 274 239 227 239 q 356 201 321 239 q 390 110 390 163 q 356 18 390 56 q 274 -20 321 -20 q 193 18 227 -20 q 159 110 159 56 m 160 1013 l 389 1013 l 316 441 l 316 313 l 231 313 l 231 441 l 160 1013 z "},"\"":{"ha":651,"x_min":119,"x_max":532,"o":"m 264 1013 l 264 636 l 119 636 l 119 1013 l 264 1013 m 532 1013 l 532 636 l 388 636 l 388 1013 l 532 1013 z "},"#":{"ha":1047,"x_min":85,"x_max":963,"o":"m 625 591 l 464 591 l 421 406 l 583 406 l 625 591 m 556 997 l 498 736 l 659 736 l 718 997 l 852 997 l 793 736 l 962 736 l 962 591 l 761 591 l 719 406 l 892 406 l 892 260 l 687 260 l 629 0 l 494 0 l 552 260 l 391 260 l 332 0 l 197 0 l 255 260 l 85 260 l 85 406 l 285 406 l 328 591 l 155 591 l 155 736 l 361 736 l 420 997 l 556 997 z "},"$":{"ha":869,"x_min":111,"x_max":766,"o":"m 119 40 l 119 237 l 193 237 q 251 102 203 146 q 387 57 298 57 l 395 57 l 395 332 q 177 433 243 369 q 111 608 111 498 q 186 801 111 730 q 395 875 260 871 l 395 1057 l 469 1057 l 469 875 q 600 856 537 871 q 722 815 662 842 l 722 631 l 648 631 q 591 753 637 709 q 469 798 545 797 l 469 546 q 700 438 633 506 q 766 249 766 371 q 689 54 766 123 q 469 -20 612 -16 l 469 -203 l 395 -203 l 395 -20 q 259 -3 328 -18 q 119 40 190 12 m 395 799 q 313 763 343 791 q 283 693 283 734 q 309 616 283 646 q 395 568 334 587 l 395 799 m 469 57 q 562 94 530 64 q 594 174 594 123 q 564 256 594 224 q 469 310 534 289 l 469 57 z "},"%":{"ha":1187,"x_min":30,"x_max":1158,"o":"m 270 962 q 214 915 231 962 q 197 755 197 868 q 214 595 197 642 q 270 547 231 547 q 327 595 309 547 q 344 755 344 642 q 327 915 344 868 q 270 962 309 962 m 270 1031 q 448 960 387 1031 q 510 755 510 889 q 448 551 510 622 q 270 479 387 479 q 92 551 154 479 q 30 755 30 622 q 92 960 30 889 q 270 1031 154 1031 m 827 1031 l 931 1031 l 361 -20 l 256 -20 l 827 1031 m 918 532 q 1096 461 1034 532 q 1157 257 1157 390 q 1096 52 1157 123 q 918 -20 1034 -20 q 740 52 802 -20 q 677 257 677 123 q 740 461 677 390 q 918 532 802 532 m 918 464 q 861 417 878 464 q 844 257 844 370 q 861 96 844 144 q 918 49 878 49 q 974 96 957 49 q 991 257 991 144 q 974 417 991 370 q 918 464 957 464 z "},"&":{"ha":1128,"x_min":50,"x_max":1106,"o":"m 1106 0 l 814 0 l 736 89 q 601 7 675 35 q 440 -20 528 -20 q 154 67 257 -20 q 50 306 50 154 q 103 495 50 416 q 269 629 156 573 q 222 716 237 675 q 206 796 206 758 q 290 969 206 907 q 526 1031 374 1031 q 631 1023 571 1031 q 767 999 692 1015 l 767 787 l 688 787 q 642 910 677 871 q 541 949 607 949 q 444 916 479 949 q 409 828 409 884 q 518 642 409 766 q 536 623 530 629 l 817 296 q 874 402 854 342 q 901 539 895 463 l 790 539 l 790 621 l 1095 621 l 1095 539 l 987 539 q 949 363 977 440 q 876 228 922 287 l 1002 82 l 1106 82 l 1106 0 m 679 155 l 334 554 q 283 457 300 509 q 266 350 266 406 q 331 161 266 235 q 496 87 396 87 q 589 104 544 87 q 679 155 633 121 z "},"'":{"ha":382,"x_min":119,"x_max":264,"o":"m 264 1013 l 264 636 l 119 636 l 119 1013 l 264 1013 z "},"(":{"ha":591,"x_min":117,"x_max":526,"o":"m 526 -216 q 219 26 320 -132 q 118 419 118 184 q 218 810 118 654 q 526 1055 318 966 l 526 974 q 387 781 430 909 q 345 419 345 653 q 387 58 345 186 q 526 -135 430 -70 l 526 -216 z "},")":{"ha":591,"x_min":63,"x_max":473,"o":"m 64 -216 l 64 -135 q 202 58 160 -70 q 245 419 245 186 q 202 781 245 653 q 64 974 160 909 l 64 1055 q 372 810 271 966 q 473 419 473 654 q 371 26 473 184 q 64 -216 269 -132 z "},"*":{"ha":653,"x_min":27,"x_max":627,"o":"m 626 822 l 406 708 l 626 593 l 566 488 l 366 650 l 382 386 l 271 386 l 288 650 l 87 488 l 27 593 l 248 708 l 27 822 l 87 929 l 288 765 l 271 1031 l 382 1031 l 366 765 l 566 929 l 626 822 z "},"+":{"ha":1047,"x_min":132,"x_max":916,"o":"m 594 871 l 594 514 l 915 514 l 915 358 l 594 358 l 594 1 l 454 1 l 454 358 l 132 358 l 132 514 l 454 514 l 454 871 l 594 871 z "},",":{"ha":435,"x_min":16,"x_max":314,"o":"m 16 -134 q 110 -6 80 -77 q 140 158 140 64 l 140 216 l 314 216 l 314 211 q 257 -47 314 61 q 83 -229 201 -155 l 16 -134 z "},"-":{"ha":519,"x_min":67,"x_max":452,"o":"m 68 464 l 451 464 l 451 281 l 68 281 l 68 464 z "},".":{"ha":435,"x_min":101,"x_max":334,"o":"m 101 110 q 135 201 101 163 q 217 239 170 239 q 300 201 266 239 q 334 110 334 163 q 300 18 334 56 q 217 -20 266 -20 q 135 18 170 -20 q 101 110 101 56 z "},"/":{"ha":456,"x_min":0,"x_max":457,"o":"m 321 1013 l 456 1013 l 135 -129 l 0 -129 l 321 1013 z "},":":{"ha":461,"x_min":115,"x_max":347,"o":"m 115 551 q 149 643 115 605 q 230 681 182 681 q 312 643 278 681 q 346 551 346 604 q 312 461 346 498 q 230 424 278 424 q 148 461 182 424 q 115 551 115 498 m 115 110 q 149 201 115 163 q 230 239 182 239 q 312 201 278 239 q 346 110 346 163 q 312 18 346 56 q 230 -20 278 -20 q 149 18 182 -20 q 115 110 115 56 z "},";":{"ha":461,"x_min":32,"x_max":347,"o":"m 115 551 q 149 643 115 605 q 230 681 182 681 q 312 643 278 681 q 346 551 346 604 q 312 461 346 498 q 230 424 278 424 q 148 461 182 424 q 115 551 115 498 m 33 -127 q 126 -1 96 -71 q 156 163 156 69 l 156 222 l 330 222 q 274 -40 330 70 q 100 -224 217 -150 l 33 -127 z "},"<":{"ha":1047,"x_min":132,"x_max":916,"o":"m 915 664 l 317 435 l 915 207 l 915 45 l 132 359 l 132 513 l 915 827 l 915 664 z "},"=":{"ha":1047,"x_min":132,"x_max":916,"o":"m 132 358 l 915 358 l 915 204 l 132 204 l 132 358 m 132 667 l 915 667 l 915 513 l 132 513 l 132 667 z "},">":{"ha":1047,"x_min":132,"x_max":916,"o":"m 132 664 l 132 827 l 915 513 l 915 359 l 132 45 l 132 207 l 730 435 l 132 664 z "},"?":{"ha":732,"x_min":81,"x_max":677,"o":"m 209 110 q 243 201 209 163 q 325 239 277 239 q 407 201 373 239 q 441 110 441 163 q 407 18 441 56 q 325 -20 373 -20 q 243 18 277 -20 q 209 110 209 56 m 81 985 q 225 1019 157 1008 q 357 1031 294 1031 q 594 956 511 1031 q 676 742 676 881 q 596 526 676 605 q 368 435 517 447 l 368 296 l 283 296 l 283 498 q 408 590 368 528 q 448 757 448 652 q 410 904 448 854 q 300 954 373 954 q 197 909 233 954 q 155 777 161 865 l 81 777 l 81 985 z "},"@":{"ha":1250,"x_min":82,"x_max":1162,"o":"m 777 342 l 777 393 q 739 534 777 481 q 639 587 701 587 q 542 528 578 587 q 505 368 505 469 q 542 208 505 268 q 639 149 578 149 q 739 201 701 149 q 777 342 777 254 m 777 163 q 706 88 749 114 q 608 62 662 62 q 424 144 491 62 q 357 368 357 225 q 424 592 357 511 q 608 673 491 673 q 706 648 662 673 q 777 574 749 622 l 777 659 l 910 659 l 910 155 q 1045 261 998 182 q 1093 460 1093 340 q 1059 636 1093 557 q 956 781 1025 715 q 825 862 901 833 q 663 890 749 890 q 515 867 584 890 q 389 796 446 843 q 256 613 302 724 q 209 368 209 502 q 238 170 209 263 q 322 8 268 77 q 473 -114 388 -73 q 657 -155 558 -155 q 801 -132 732 -155 q 934 -64 871 -109 l 968 -127 q 806 -213 890 -184 q 633 -241 722 -241 q 416 -199 515 -241 q 240 -71 317 -156 q 123 126 163 14 q 83 368 83 238 q 123 610 83 498 q 240 807 163 722 q 418 935 318 892 q 643 977 517 977 q 841 944 751 977 q 1000 844 930 911 q 1121 673 1081 769 q 1162 458 1162 576 q 1065 167 1162 271 q 795 62 968 62 l 777 62 l 777 163 z "},"A":{"ha":970,"x_min":-10,"x_max":984,"o":"m -9 0 l -9 82 l 64 82 l 408 1013 l 553 1013 l 897 82 l 984 82 l 984 0 l 557 0 l 557 82 l 646 82 l 571 289 l 229 289 l 153 82 l 261 82 l 261 0 l -9 0 m 259 371 l 541 371 l 401 758 l 259 371 z "},"B":{"ha":1056,"x_min":58,"x_max":988,"o":"m 58 0 l 58 82 l 175 82 l 175 930 l 58 930 l 58 1013 l 599 1013 q 849 950 766 1013 q 932 762 932 888 q 875 619 932 672 q 704 553 817 566 q 914 471 841 538 q 987 293 987 404 q 885 71 987 142 q 565 0 783 0 l 58 0 m 410 590 l 490 590 q 646 632 595 590 q 696 762 696 675 q 647 890 696 850 q 490 930 598 930 l 410 930 l 410 590 m 410 82 l 498 82 q 670 134 614 82 q 726 293 726 185 q 670 455 726 401 q 498 509 613 509 l 410 509 l 410 82 z "},"C":{"ha":995,"x_min":52,"x_max":932,"o":"m 931 289 q 802 56 895 132 q 551 -20 709 -20 q 186 122 320 -20 q 52 505 52 263 q 186 889 52 748 q 551 1031 320 1031 q 720 1009 632 1031 q 906 943 808 987 l 906 694 l 829 694 q 742 885 805 822 q 576 949 680 949 q 378 840 443 949 q 314 505 314 731 q 378 171 314 279 q 577 62 443 62 q 726 119 669 62 q 810 289 784 175 l 931 289 z "},"D":{"ha":1084,"x_min":58,"x_max":1031,"o":"m 410 82 l 495 82 q 704 184 637 82 q 770 507 770 286 q 704 829 770 728 q 495 930 638 930 l 410 930 l 410 82 m 58 0 l 58 82 l 175 82 l 175 930 l 58 930 l 58 1013 l 526 1013 q 902 882 772 1013 q 1031 507 1031 752 q 901 131 1031 261 q 526 0 771 0 l 58 0 z "},"E":{"ha":952,"x_min":58,"x_max":889,"o":"m 58 0 l 58 82 l 175 82 l 175 930 l 58 930 l 58 1013 l 878 1013 l 878 774 l 793 774 l 793 920 l 410 920 l 410 595 l 649 595 l 649 724 l 732 724 l 732 374 l 649 374 l 649 503 l 410 503 l 410 93 l 805 93 l 805 239 l 888 239 l 888 0 l 58 0 z "},"F":{"ha":887,"x_min":58,"x_max":871,"o":"m 58 0 l 58 82 l 175 82 l 175 930 l 58 930 l 58 1013 l 871 1013 l 871 774 l 787 774 l 787 920 l 412 920 l 412 595 l 643 595 l 643 724 l 726 724 l 726 374 l 643 374 l 643 503 l 412 503 l 412 82 l 555 82 l 555 0 l 58 0 z "},"G":{"ha":1067,"x_min":52,"x_max":969,"o":"m 860 694 q 769 889 833 829 q 588 949 705 949 q 380 842 446 949 q 314 505 314 735 q 377 170 314 277 q 575 62 441 62 q 670 75 626 62 q 750 114 714 88 l 750 392 l 640 392 l 640 473 l 968 473 l 968 85 q 764 6 866 32 q 555 -20 662 -20 q 186 121 320 -20 q 52 505 52 261 q 186 890 52 750 q 555 1031 320 1031 q 747 1009 652 1031 q 937 943 842 987 l 937 694 l 860 694 z "},"H":{"ha":1181,"x_min":58,"x_max":1125,"o":"m 58 0 l 58 82 l 175 82 l 175 930 l 58 930 l 58 1013 l 528 1013 l 528 930 l 410 930 l 410 590 l 772 590 l 772 930 l 656 930 l 656 1013 l 1125 1013 l 1125 930 l 1008 930 l 1008 82 l 1125 82 l 1125 0 l 656 0 l 656 82 l 772 82 l 772 497 l 410 497 l 410 82 l 528 82 l 528 0 l 58 0 z "},"I":{"ha":585,"x_min":58,"x_max":528,"o":"m 58 0 l 58 82 l 175 82 l 175 930 l 58 930 l 58 1013 l 528 1013 l 528 930 l 410 930 l 410 82 l 528 82 l 528 0 l 58 0 z "},"J":{"ha":591,"x_min":-92,"x_max":544,"o":"m -92 -243 l -92 -83 l -12 -83 q 15 -177 -9 -147 q 85 -207 39 -207 q 168 -156 144 -207 q 191 33 191 -106 l 191 930 l 58 930 l 58 1013 l 544 1013 l 544 930 l 427 930 l 427 28 q 353 -213 427 -137 q 115 -289 278 -289 q 13 -277 64 -289 q -92 -243 -39 -266 z "},"K":{"ha":1086,"x_min":58,"x_max":1125,"o":"m 58 0 l 58 82 l 175 82 l 175 930 l 58 930 l 58 1013 l 528 1013 l 528 930 l 410 930 l 410 561 l 796 930 l 699 930 l 699 1013 l 1039 1013 l 1039 930 l 918 930 l 590 618 l 1035 82 l 1125 82 l 1125 0 l 816 0 l 410 492 l 410 82 l 528 82 l 528 0 l 58 0 z "},"L":{"ha":879,"x_min":58,"x_max":852,"o":"m 58 0 l 58 82 l 175 82 l 175 930 l 58 930 l 58 1013 l 528 1013 l 528 930 l 410 930 l 410 93 l 769 93 l 769 253 l 852 253 l 852 0 l 58 0 z "},"M":{"ha":1383,"x_min":52,"x_max":1325,"o":"m 52 0 l 52 82 l 168 82 l 168 930 l 52 930 l 52 1013 l 429 1013 l 688 363 l 949 1013 l 1325 1013 l 1325 930 l 1208 930 l 1208 82 l 1325 82 l 1325 0 l 857 0 l 857 82 l 972 82 l 972 854 l 690 149 l 535 149 l 254 854 l 254 82 l 370 82 l 370 0 l 52 0 z "},"N":{"ha":1142,"x_min":55,"x_max":1093,"o":"m 55 0 l 55 82 l 172 82 l 172 930 l 55 930 l 55 1013 l 340 1013 l 890 296 l 890 930 l 774 930 l 774 1013 l 1093 1013 l 1093 930 l 976 930 l 976 0 l 816 0 l 258 732 l 258 82 l 374 82 l 374 0 l 55 0 z "},"O":{"ha":1088,"x_min":52,"x_max":1036,"o":"m 544 62 q 717 172 661 62 q 774 505 774 281 q 717 840 774 730 q 544 949 661 949 q 371 839 428 949 q 314 505 314 728 q 371 173 314 283 q 544 62 428 62 m 544 -20 q 183 120 314 -20 q 52 505 52 260 q 183 891 52 751 q 544 1031 315 1031 q 904 891 774 1031 q 1035 505 1035 751 q 904 120 1035 260 q 544 -20 773 -20 z "},"P":{"ha":940,"x_min":58,"x_max":909,"o":"m 58 0 l 58 82 l 175 82 l 175 930 l 58 930 l 58 1013 l 577 1013 q 819 932 730 1013 q 909 717 909 852 q 819 500 909 581 q 577 419 729 419 l 410 419 l 410 82 l 557 82 l 557 0 l 58 0 m 410 501 l 479 501 q 605 560 558 501 q 652 717 652 618 q 606 872 652 814 q 479 930 559 930 l 410 930 l 410 501 z "},"Q":{"ha":1088,"x_min":52,"x_max":1036,"o":"m 540 -20 q 181 123 309 -16 q 52 505 52 261 q 183 891 52 751 q 544 1031 315 1031 q 904 891 774 1031 q 1035 505 1035 751 q 935 155 1035 290 q 649 -11 834 21 q 727 -66 681 -50 q 848 -83 774 -83 l 879 -83 l 879 -250 l 861 -250 q 668 -195 745 -250 q 540 -20 590 -139 m 544 62 q 717 172 661 62 q 774 505 774 281 q 717 840 774 730 q 544 949 661 949 q 371 839 428 949 q 314 505 314 728 q 371 173 314 283 q 544 62 428 62 z "},"R":{"ha":1038,"x_min":58,"x_max":1046,"o":"m 663 494 q 755 454 718 486 q 820 364 792 423 l 953 82 l 1046 82 l 1046 0 l 747 0 l 601 306 q 529 427 559 401 q 448 453 500 453 l 410 453 l 410 82 l 528 82 l 528 0 l 58 0 l 58 82 l 175 82 l 175 930 l 58 930 l 58 1013 l 578 1013 q 824 942 737 1013 q 910 741 910 871 q 849 573 910 635 q 663 494 787 512 m 410 534 l 490 534 q 622 586 576 534 q 668 733 668 637 q 622 880 668 829 q 490 930 576 930 l 410 930 l 410 534 z "},"S":{"ha":903,"x_min":82,"x_max":828,"o":"m 96 49 l 96 289 l 174 289 q 258 119 192 175 q 440 62 323 62 q 584 102 534 62 q 633 220 633 142 q 600 315 633 281 q 461 378 566 349 l 325 415 q 137 520 191 453 q 83 713 83 588 q 173 947 83 863 q 425 1031 262 1031 q 591 1016 505 1031 q 770 971 677 1001 l 770 747 l 693 747 q 615 900 675 852 q 445 949 555 949 q 309 914 355 949 q 262 810 262 879 q 294 714 262 747 q 450 646 326 681 l 587 608 q 770 498 713 573 q 827 293 827 424 q 732 60 827 140 q 452 -20 637 -20 q 275 -3 363 -20 q 96 49 187 14 z "},"T":{"ha":930,"x_min":14,"x_max":918,"o":"m 227 0 l 227 82 l 347 82 l 347 920 l 98 920 l 98 760 l 14 760 l 14 1013 l 918 1013 l 918 760 l 835 760 l 835 920 l 583 920 l 583 82 l 705 82 l 705 0 l 227 0 z "},"U":{"ha":1090,"x_min":43,"x_max":1063,"o":"m 159 930 l 43 930 l 43 1013 l 511 1013 l 511 930 l 395 930 l 395 424 q 448 159 395 235 q 630 83 501 83 q 808 160 755 83 q 861 424 861 236 l 861 930 l 745 930 l 745 1013 l 1063 1013 l 1063 930 l 946 930 l 946 410 q 856 79 946 178 q 552 -20 766 -20 q 250 80 340 -20 q 159 411 159 180 l 159 930 z "},"V":{"ha":970,"x_min":-7,"x_max":988,"o":"m 987 1013 l 987 930 l 911 930 l 568 0 l 422 0 l 79 930 l -7 930 l -7 1013 l 420 1013 l 420 930 l 332 930 l 577 260 l 825 930 l 717 930 l 717 1013 l 987 1013 z "},"W":{"ha":1404,"x_min":-12,"x_max":1419,"o":"m 1065 0 l 907 0 l 701 737 l 495 0 l 338 0 l 77 930 l -11 930 l -11 1013 l 421 1013 l 421 930 l 323 930 l 498 309 l 694 1013 l 867 1013 l 1067 297 l 1245 930 l 1137 930 l 1137 1013 l 1419 1013 l 1419 930 l 1325 930 l 1065 0 z "},"X":{"ha":970,"x_min":6,"x_max":969,"o":"m 424 390 l 234 82 l 346 82 l 346 0 l 22 0 l 22 82 l 135 82 l 375 469 l 90 930 l 6 930 l 6 1013 l 459 1013 l 459 930 l 359 930 l 535 646 l 710 930 l 604 930 l 604 1013 l 921 1013 l 921 930 l 808 930 l 583 567 l 882 82 l 968 82 l 968 0 l 514 0 l 514 82 l 615 82 l 424 390 z "},"Y":{"ha":892,"x_min":-12,"x_max":904,"o":"m 215 0 l 215 82 l 338 82 l 338 419 l 66 930 l -11 930 l -11 1013 l 426 1013 l 426 930 l 325 930 l 530 545 l 734 930 l 643 930 l 643 1013 l 904 1013 l 904 930 l 827 930 l 574 454 l 574 82 l 696 82 l 696 0 l 215 0 z "},"Z":{"ha":912,"x_min":46,"x_max":867,"o":"m 46 0 l 46 96 l 590 920 l 154 920 l 154 768 l 71 768 l 71 1013 l 861 1013 l 861 917 l 323 93 l 784 93 l 784 235 l 867 235 l 867 0 l 46 0 z "},"[":{"ha":591,"x_min":156,"x_max":503,"o":"m 156 1055 l 503 1055 l 503 974 l 372 974 l 372 -102 l 503 -102 l 503 -183 l 156 -183 l 156 1055 z "},"\\":{"ha":456,"x_min":0,"x_max":457,"o":"m 135 1013 l 456 -129 l 321 -129 l 0 1013 l 135 1013 z "},"]":{"ha":591,"x_min":88,"x_max":435,"o":"m 435 1055 l 435 -183 l 88 -183 l 88 -102 l 218 -102 l 218 974 l 88 974 l 88 1055 l 435 1055 z "},"^":{"ha":1047,"x_min":126,"x_max":922,"o":"m 594 1013 l 921 635 l 791 635 l 524 848 l 256 635 l 126 635 l 458 1013 l 594 1013 z "},"_":{"ha":625,"x_min":0,"x_max":625,"o":"m 625 -199 l 625 -328 l 0 -328 l 0 -199 l 625 -199 z "},"`":{"ha":625,"x_min":85,"x_max":414,"o":"m 256 1111 l 414 856 l 314 856 l 86 1111 l 256 1111 z "},"a":{"ha":810,"x_min":51,"x_max":781,"o":"m 688 443 l 688 82 l 781 82 l 781 0 l 473 0 l 473 92 q 377 7 430 35 q 258 -20 325 -20 q 105 40 158 -20 q 52 210 52 99 q 128 391 52 331 q 359 452 205 452 l 473 452 l 473 494 q 435 624 473 582 q 320 665 398 665 q 220 636 255 665 q 170 539 185 606 l 101 539 l 101 694 q 221 729 159 718 q 353 741 283 741 q 608 669 527 741 q 688 443 688 597 m 473 227 l 473 371 l 391 371 q 298 334 331 371 q 266 229 266 298 q 290 127 266 161 q 361 93 313 93 q 442 130 412 93 q 473 227 473 166 z "},"b":{"ha":873,"x_min":28,"x_max":824,"o":"m 121 82 l 121 974 l 28 974 l 28 1055 l 338 1055 l 338 629 q 411 713 365 686 q 526 741 458 741 q 744 639 665 741 q 824 361 824 538 q 744 82 824 184 q 526 -20 665 -20 q 411 8 458 -20 q 338 92 365 35 l 338 0 l 28 0 l 28 82 l 121 82 m 338 325 q 367 142 338 199 q 460 86 395 86 q 554 146 527 86 q 581 361 581 205 q 554 575 581 516 q 460 635 527 635 q 367 578 395 635 q 338 396 338 522 l 338 325 z "},"c":{"ha":761,"x_min":51,"x_max":705,"o":"m 705 225 q 610 41 682 102 q 415 -20 538 -20 q 146 80 241 -20 q 52 361 52 180 q 145 640 52 540 q 406 741 239 741 q 543 726 474 741 q 684 684 612 712 l 684 484 l 615 484 q 567 620 606 575 q 459 664 528 664 q 331 596 369 664 q 292 361 292 528 q 330 127 292 197 q 451 57 367 57 q 556 100 516 57 q 604 225 595 144 l 705 225 z "},"d":{"ha":873,"x_min":51,"x_max":845,"o":"m 536 325 l 536 396 q 507 578 536 522 q 414 635 478 635 q 319 575 347 635 q 292 361 292 516 q 320 146 292 205 q 414 86 347 86 q 507 142 478 86 q 536 325 536 199 m 753 82 l 845 82 l 845 0 l 536 0 l 536 92 q 463 8 509 35 q 347 -20 416 -20 q 131 82 210 -20 q 52 361 52 184 q 131 640 52 538 q 347 741 210 741 q 463 713 416 741 q 536 629 509 686 l 536 974 l 444 974 l 444 1055 l 753 1055 l 753 82 z "},"e":{"ha":795,"x_min":51,"x_max":739,"o":"m 501 407 q 477 607 501 549 q 396 664 454 664 q 316 608 340 664 q 292 419 292 551 l 292 407 l 501 407 m 739 326 l 292 326 l 292 321 q 330 119 292 181 q 452 57 368 57 q 566 98 522 57 q 621 218 609 140 l 723 218 q 618 38 696 96 q 400 -20 540 -20 q 141 79 231 -20 q 52 361 52 178 q 143 640 52 540 q 400 741 235 741 q 647 635 561 741 q 739 326 733 530 z "},"f":{"ha":537,"x_min":38,"x_max":605,"o":"m 605 875 l 536 875 q 509 954 532 928 q 444 979 486 979 q 373 940 395 979 q 351 814 351 901 l 351 721 l 514 721 l 514 639 l 351 639 l 351 82 l 476 82 l 476 0 l 43 0 l 43 82 l 135 82 l 135 639 l 39 639 l 39 721 l 135 721 l 135 811 q 204 993 135 931 q 406 1055 273 1055 q 508 1049 458 1055 q 605 1029 557 1042 l 605 875 z "},"g":{"ha":873,"x_min":51,"x_max":845,"o":"m 753 639 l 753 9 q 655 -225 753 -142 q 380 -309 558 -309 q 249 -297 315 -309 q 113 -264 182 -286 l 113 -92 l 181 -92 q 233 -197 191 -163 q 354 -232 275 -232 q 495 -179 454 -232 q 536 9 536 -125 l 536 92 q 463 8 509 35 q 347 -20 416 -20 q 131 82 210 -20 q 52 361 52 184 q 131 640 52 538 q 347 741 210 741 q 463 713 416 741 q 536 629 509 686 l 536 721 l 845 721 l 845 639 l 753 639 m 536 396 q 507 578 536 522 q 414 635 478 635 q 319 575 347 635 q 292 361 292 516 q 320 146 292 205 q 414 86 347 86 q 507 142 478 86 q 536 325 536 199 l 536 396 z "},"h":{"ha":909,"x_min":38,"x_max":880,"o":"m 43 0 l 43 82 l 135 82 l 135 974 l 39 974 l 39 1055 l 351 1055 l 351 619 q 440 712 390 684 q 566 741 490 741 q 731 669 675 741 q 787 458 787 597 l 787 82 l 880 82 l 880 0 l 492 0 l 492 82 l 571 82 l 571 465 q 550 592 571 557 q 477 628 529 628 q 382 575 412 628 q 351 406 351 522 l 351 82 l 430 82 l 430 0 l 43 0 z "},"i":{"ha":475,"x_min":43,"x_max":444,"o":"m 115 925 q 149 1018 115 980 q 233 1055 183 1055 q 315 1018 281 1055 q 349 925 349 980 q 315 834 349 871 q 233 796 281 796 q 149 833 183 796 q 115 925 115 871 m 351 82 l 444 82 l 444 0 l 43 0 l 43 82 l 135 82 l 135 639 l 43 639 l 43 721 l 351 721 l 351 82 z "},"j":{"ha":452,"x_min":-93,"x_max":350,"o":"m 109 925 q 142 1018 109 980 q 227 1055 176 1055 q 308 1017 274 1055 q 342 925 342 979 q 309 834 342 871 q 227 796 275 796 q 143 833 177 796 q 109 925 109 871 m 134 639 l 41 639 l 41 721 l 350 721 l 350 -85 q 279 -252 350 -195 q 71 -309 209 -309 q -7 -302 35 -309 q -93 -282 -48 -295 l -93 -129 l -24 -130 q -4 -208 -22 -184 q 54 -232 14 -232 q 116 -200 98 -232 q 134 -85 134 -168 l 134 639 z "},"k":{"ha":866,"x_min":43,"x_max":888,"o":"m 433 0 l 43 0 l 43 82 l 135 82 l 135 974 l 43 974 l 43 1055 l 351 1055 l 351 378 l 613 639 l 535 639 l 535 721 l 831 721 l 831 639 l 711 639 l 544 472 l 817 82 l 888 82 l 888 0 l 515 0 l 515 82 l 591 82 l 412 339 l 351 279 l 351 82 l 433 82 l 433 0 z "},"l":{"ha":475,"x_min":43,"x_max":444,"o":"m 351 82 l 444 82 l 444 0 l 43 0 l 43 82 l 135 82 l 135 974 l 43 974 l 43 1055 l 351 1055 l 351 82 z "},"m":{"ha":1322,"x_min":43,"x_max":1294,"o":"m 759 603 q 856 708 804 675 q 979 741 909 741 q 1146 670 1090 741 q 1201 458 1201 600 l 1201 82 l 1294 82 l 1294 0 l 907 0 l 907 82 l 985 82 l 985 422 q 967 593 985 557 q 897 628 948 628 q 808 579 840 628 q 777 439 777 530 l 777 82 l 854 82 l 854 0 l 483 0 l 483 82 l 560 82 l 560 422 q 541 593 560 557 q 473 628 522 628 q 383 579 414 628 q 351 439 351 530 l 351 82 l 429 82 l 429 0 l 43 0 l 43 82 l 135 82 l 135 639 l 43 639 l 43 721 l 351 721 l 351 619 q 437 711 389 682 q 553 741 486 741 q 682 707 633 741 q 759 603 732 673 z "},"n":{"ha":909,"x_min":43,"x_max":880,"o":"m 43 0 l 43 82 l 135 82 l 135 639 l 43 639 l 43 721 l 351 721 l 351 619 q 440 712 390 684 q 566 741 490 741 q 731 669 675 741 q 787 458 787 597 l 787 82 l 880 82 l 880 0 l 492 0 l 492 82 l 571 82 l 571 465 q 550 592 571 557 q 477 628 529 628 q 382 575 412 628 q 351 406 351 522 l 351 82 l 430 82 l 430 0 l 43 0 z "},"o":{"ha":833,"x_min":51,"x_max":784,"o":"m 418 57 q 513 122 486 57 q 541 361 541 187 q 514 599 541 534 q 418 664 486 664 q 320 598 349 664 q 292 361 292 533 q 320 123 292 189 q 418 57 349 57 m 418 -20 q 149 82 246 -20 q 52 361 52 183 q 149 640 52 539 q 418 741 246 741 q 687 640 589 741 q 784 361 784 539 q 686 82 784 183 q 418 -20 589 -20 z "},"p":{"ha":873,"x_min":28,"x_max":824,"o":"m 338 396 l 338 325 q 367 142 338 199 q 460 86 395 86 q 554 146 527 86 q 581 361 581 205 q 554 575 581 516 q 460 635 527 635 q 367 578 395 635 q 338 396 338 522 m 121 639 l 28 639 l 28 721 l 338 721 l 338 629 q 411 713 365 686 q 526 741 458 741 q 744 639 665 741 q 824 361 824 538 q 744 82 824 184 q 526 -20 665 -20 q 411 8 458 -20 q 338 92 365 35 l 338 -207 l 437 -207 l 437 -289 l 28 -289 l 28 -207 l 121 -207 l 121 639 z "},"q":{"ha":873,"x_min":51,"x_max":845,"o":"m 753 639 l 753 -207 l 845 -207 l 845 -289 l 437 -289 l 437 -207 l 536 -207 l 536 92 q 463 8 509 35 q 347 -20 416 -20 q 131 82 210 -20 q 52 361 52 184 q 131 640 52 538 q 347 741 210 741 q 463 713 416 741 q 536 629 509 686 l 536 721 l 845 721 l 845 639 l 753 639 m 536 396 q 507 578 536 522 q 414 635 478 635 q 319 575 347 635 q 292 361 292 516 q 320 146 292 205 q 414 86 347 86 q 507 142 478 86 q 536 325 536 199 l 536 396 z "},"r":{"ha":659,"x_min":36,"x_max":671,"o":"m 671 729 l 671 514 l 602 514 q 574 600 599 572 q 503 628 550 628 q 392 559 433 628 q 351 367 351 490 l 351 82 l 469 82 l 469 0 l 43 0 l 43 82 l 135 82 l 135 639 l 36 639 l 36 721 l 351 721 l 351 593 q 435 704 382 668 q 563 741 487 741 q 609 738 582 741 q 671 729 636 734 z "},"s":{"ha":703,"x_min":54,"x_max":653,"o":"m 58 21 l 58 222 l 127 222 q 182 99 136 142 q 307 57 228 57 q 407 82 372 57 q 442 155 442 108 q 420 222 442 199 q 334 264 398 246 l 245 289 q 99 369 144 317 q 54 509 54 420 q 127 683 54 626 q 353 741 200 741 q 475 730 410 741 q 619 697 540 720 l 619 515 l 550 515 q 503 627 545 589 q 382 664 461 664 q 283 641 317 664 q 249 572 249 617 q 269 515 249 536 q 339 479 288 494 l 427 454 q 604 366 555 418 q 652 218 652 313 q 574 38 652 96 q 330 -20 496 -20 q 202 -9 270 -20 q 58 21 134 1 z "},"t":{"ha":577,"x_min":30,"x_max":572,"o":"m 124 639 l 30 639 l 30 721 l 124 721 l 124 945 l 340 945 l 340 721 l 520 721 l 520 639 l 340 639 l 340 197 q 353 80 340 103 q 402 57 367 57 q 460 86 441 57 q 480 176 479 115 l 571 176 q 518 24 566 68 q 353 -20 470 -20 q 172 27 219 -20 q 124 197 124 73 l 124 639 z "},"u":{"ha":909,"x_min":28,"x_max":867,"o":"m 774 721 l 774 82 l 866 82 l 866 0 l 557 0 l 557 102 q 469 9 519 37 q 342 -20 418 -20 q 177 52 233 -20 q 121 262 121 123 l 121 639 l 28 639 l 28 721 l 338 721 l 338 300 q 358 129 338 165 q 431 93 378 93 q 527 146 497 93 q 557 317 557 200 l 557 639 l 479 639 l 479 721 l 774 721 z "},"v":{"ha":726,"x_min":-23,"x_max":758,"o":"m 279 0 l 49 639 l -22 639 l -22 721 l 350 721 l 350 639 l 271 639 l 435 183 l 599 639 l 514 639 l 514 721 l 758 721 l 758 639 l 682 639 l 452 0 l 279 0 z "},"w":{"ha":1076,"x_min":-12,"x_max":1101,"o":"m 674 721 l 821 240 l 943 639 l 859 639 l 859 721 l 1101 721 l 1101 639 l 1025 639 l 829 0 l 680 0 l 543 452 l 404 0 l 256 0 l 60 639 l -11 639 l -11 721 l 357 721 l 357 639 l 280 639 l 400 249 l 545 721 l 674 721 z "},"x":{"ha":745,"x_min":0,"x_max":754,"o":"m 439 460 l 553 639 l 473 639 l 473 721 l 726 721 l 726 639 l 640 639 l 475 382 l 668 82 l 754 82 l 754 0 l 341 0 l 341 82 l 425 82 l 302 272 l 180 82 l 267 82 l 267 0 l 0 0 l 0 82 l 93 82 l 265 351 l 79 639 l 6 639 l 6 721 l 402 721 l 402 639 l 323 639 l 439 460 z "},"y":{"ha":726,"x_min":-17,"x_max":757,"o":"m 390 -163 q 319 -275 361 -242 q 208 -309 278 -309 q 141 -301 178 -309 q 61 -279 104 -294 l 61 -129 l 130 -130 q 152 -207 132 -182 q 214 -232 173 -232 q 278 -208 254 -232 q 327 -117 302 -184 l 336 -92 l 54 639 l -16 639 l -16 721 l 357 721 l 357 639 l 280 639 l 445 212 l 599 639 l 513 639 l 513 721 l 756 721 l 756 639 l 677 639 l 390 -163 z "},"z":{"ha":709,"x_min":43,"x_max":668,"o":"m 44 0 l 44 82 l 416 642 l 136 642 l 136 518 l 64 518 l 64 721 l 668 721 l 668 640 l 295 81 l 595 81 l 595 211 l 668 211 l 668 0 l 44 0 z "},"{":{"ha":804,"x_min":104,"x_max":692,"o":"m 692 -144 l 692 -227 l 601 -227 q 407 -210 457 -227 q 327 -151 357 -193 q 301 -90 309 -127 q 294 24 294 -52 l 294 193 q 261 335 294 296 q 142 374 229 374 l 105 374 l 105 456 l 142 456 q 261 495 229 456 q 294 636 294 534 l 294 806 q 301 919 294 882 q 327 981 309 956 q 407 1039 357 1022 q 601 1055 457 1055 l 692 1055 l 692 974 l 629 974 q 535 942 560 974 q 510 818 510 910 l 510 635 q 480 481 510 527 q 371 415 450 435 q 480 347 451 392 q 510 195 510 302 l 510 11 q 535 -113 510 -81 q 629 -144 560 -144 l 692 -144 z "},"|":{"ha":454,"x_min":161,"x_max":293,"o":"m 292 1061 l 292 -328 l 161 -328 l 161 1061 l 292 1061 z "},"}":{"ha":804,"x_min":113,"x_max":699,"o":"m 113 -144 l 175 -144 q 268 -113 243 -144 q 294 11 294 -81 l 294 195 q 323 347 294 301 q 434 415 353 392 q 324 481 355 435 q 294 635 294 528 l 294 818 q 268 942 294 910 q 175 974 243 974 l 113 974 l 113 1055 l 203 1055 q 397 1039 347 1055 q 477 981 447 1022 q 503 919 495 956 q 510 806 510 882 l 510 636 q 543 495 510 534 q 661 456 576 456 l 699 456 l 699 374 l 661 374 q 543 335 576 374 q 510 193 510 296 l 510 24 q 503 -90 510 -52 q 477 -151 495 -127 q 397 -210 447 -193 q 203 -227 347 -227 l 113 -227 l 113 -144 z "},"~":{"ha":1047,"x_min":132,"x_max":916,"o":"m 915 564 l 915 424 q 801 338 858 366 q 682 310 744 310 q 532 349 625 310 q 516 355 522 353 q 504 361 512 357 q 340 406 399 406 q 242 381 293 406 q 132 307 191 357 l 132 447 q 248 533 191 506 q 365 561 304 561 q 515 522 423 561 q 531 515 526 517 l 540 511 q 707 465 646 465 q 805 490 754 465 q 915 564 857 514 z "}," ":{"ha":435,"x_min":0,"x_max":0,"o":""},"¡":{"ha":549,"x_min":159,"x_max":391,"o":"m 390 648 q 356 558 390 595 q 274 521 321 521 q 192 558 226 521 q 159 648 159 595 q 193 740 159 702 q 274 778 227 778 q 356 740 321 778 q 390 648 390 701 m 389 -253 l 160 -253 l 231 318 l 231 447 l 316 447 l 316 318 l 389 -253 z "},"¢":{"ha":869,"x_min":98,"x_max":753,"o":"m 451 64 l 451 657 q 364 572 391 640 q 338 361 338 504 q 364 150 338 218 q 451 64 390 82 m 753 225 q 675 58 733 119 q 525 -16 618 -3 l 525 -203 l 451 -203 l 451 -20 q 190 84 282 -16 q 98 361 98 183 q 190 637 98 538 q 451 741 282 736 l 451 920 l 525 920 l 525 737 q 610 722 561 734 q 731 684 659 709 l 731 484 l 662 484 q 620 613 653 569 q 525 664 586 656 l 525 60 q 612 112 581 71 q 651 225 644 153 l 753 225 z "},"£":{"ha":869,"x_min":90,"x_max":779,"o":"m 761 815 l 688 815 q 654 918 684 881 q 572 954 624 954 q 470 904 501 954 q 439 734 439 853 l 439 553 l 654 553 l 654 471 l 439 471 l 439 93 l 695 93 l 695 248 l 779 248 l 779 0 l 90 0 l 90 82 l 208 82 l 208 471 l 90 471 l 90 553 l 208 553 l 208 741 q 289 959 208 887 q 538 1031 370 1031 q 632 1025 577 1031 q 761 1007 688 1019 l 761 815 z "},"¤":{"ha":795,"x_min":46,"x_max":751,"o":"m 399 286 q 493 329 454 286 q 532 435 532 372 q 493 540 532 497 q 399 583 454 583 q 304 540 343 583 q 265 435 265 497 q 303 329 265 372 q 399 286 342 286 m 266 182 l 138 41 l 46 146 l 174 288 q 146 355 155 319 q 137 435 137 391 q 146 514 137 477 q 174 582 156 551 l 46 721 l 140 828 l 266 685 q 329 715 296 705 q 399 725 361 725 q 465 715 432 725 q 534 685 498 705 l 659 828 l 751 724 l 624 585 q 651 509 642 547 q 660 435 660 471 q 651 356 660 392 q 624 289 642 321 l 751 146 l 656 41 l 530 184 q 469 154 502 164 q 399 144 437 144 q 330 154 363 144 q 266 182 297 163 z "},"¥":{"ha":869,"x_min":24,"x_max":831,"o":"m 199 0 l 199 82 l 315 82 l 315 317 l 69 317 l 69 396 l 315 396 l 315 436 l 278 528 l 69 528 l 69 607 l 243 607 l 107 930 l 24 930 l 24 1013 l 448 1013 l 448 930 l 344 930 l 501 557 l 657 930 l 565 930 l 565 1013 l 831 1013 l 831 930 l 749 930 l 614 607 l 792 607 l 792 528 l 578 528 l 547 449 l 547 396 l 792 396 l 792 317 l 547 317 l 547 82 l 662 82 l 662 0 l 199 0 z "},"¦":{"ha":454,"x_min":161,"x_max":293,"o":"m 292 971 l 292 457 l 161 457 l 161 971 l 292 971 m 292 277 l 292 -237 l 161 -237 l 161 277 l 292 277 z "},"§":{"ha":653,"x_min":38,"x_max":616,"o":"m 547 1000 l 547 838 l 475 838 q 439 925 471 896 q 349 954 408 954 q 271 929 299 954 q 243 859 243 904 q 260 804 243 827 q 332 750 277 782 l 414 701 q 572 578 529 635 q 615 443 615 521 q 581 322 615 372 q 476 243 546 272 q 550 168 527 211 q 574 64 574 125 q 507 -81 574 -29 q 319 -132 441 -132 q 213 -124 268 -132 q 95 -102 157 -117 l 95 61 l 168 61 q 204 -28 172 0 q 300 -56 235 -56 q 382 -31 353 -56 q 410 41 410 -5 q 394 96 410 73 q 322 150 378 118 l 240 199 q 82 323 125 266 q 39 457 39 380 q 74 576 39 527 q 179 656 109 626 q 104 731 128 687 q 80 835 80 774 q 146 979 80 927 q 332 1031 213 1031 q 431 1023 378 1031 q 547 1000 484 1015 m 241 611 q 200 562 214 589 q 186 505 186 536 q 214 429 186 464 q 309 355 241 395 l 412 296 q 453 346 439 319 q 467 401 467 373 q 439 477 467 442 q 342 551 411 511 l 241 611 z "},"¨":{"ha":625,"x_min":85,"x_max":539,"o":"m 86 996 q 113 1065 86 1036 q 176 1095 140 1095 q 239 1065 213 1095 q 265 996 265 1036 q 239 925 265 955 q 176 896 212 896 q 113 926 140 896 q 86 996 86 956 m 359 996 q 386 1065 359 1036 q 449 1095 412 1095 q 512 1065 486 1095 q 539 996 539 1036 q 512 926 539 956 q 449 896 486 896 q 386 926 412 896 q 359 996 359 956 z "},"©":{"ha":1250,"x_min":172,"x_max":1078,"o":"m 625 1007 q 798 970 718 1007 q 945 859 878 932 q 1044 696 1011 785 q 1077 503 1077 607 q 1044 311 1077 399 q 945 149 1011 222 q 798 37 878 75 q 625 0 718 0 q 452 37 532 0 q 305 149 372 75 q 206 311 239 222 q 173 503 173 399 q 206 696 173 607 q 305 859 239 785 q 452 970 372 932 q 625 1007 532 1007 m 625 903 q 488 873 551 903 q 371 785 425 844 q 292 656 319 726 q 266 503 266 586 q 292 350 266 420 q 371 221 319 279 q 488 134 424 163 q 625 104 551 104 q 763 133 700 104 q 879 221 826 162 q 958 350 931 279 q 984 503 984 420 q 958 656 984 586 q 879 785 931 726 q 762 873 825 844 q 625 903 699 903 m 849 393 q 777 252 833 299 q 626 204 721 204 q 440 286 511 204 q 370 503 370 368 q 441 721 370 640 q 632 803 513 803 q 730 790 681 803 q 831 751 779 778 l 831 600 l 767 600 q 728 700 760 664 q 646 736 696 736 q 547 674 583 736 q 510 503 510 612 q 546 332 510 393 q 646 271 583 271 q 721 302 691 271 q 765 393 751 333 l 849 393 z "},"ª":{"ha":608,"x_min":37,"x_max":587,"o":"m 69 433 l 556 433 l 556 342 l 69 342 l 69 433 m 516 822 l 516 576 l 587 576 l 587 513 l 355 513 l 355 575 q 285 518 324 536 q 193 500 245 500 q 78 541 119 500 q 37 660 37 583 q 95 789 37 747 q 270 832 153 832 l 355 832 l 355 851 q 327 942 355 912 q 240 972 298 972 q 166 950 193 972 q 134 886 140 928 l 75 886 l 75 999 q 166 1023 119 1015 q 265 1031 214 1031 q 456 981 395 1031 q 516 822 516 930 m 355 679 l 355 768 l 294 768 q 224 743 250 768 q 199 673 199 718 q 217 609 199 631 q 271 586 236 586 q 332 611 309 586 q 355 679 355 636 z "},"«":{"ha":781,"x_min":96,"x_max":664,"o":"m 663 725 l 663 625 l 517 407 l 663 189 l 663 89 l 377 350 l 377 464 l 663 725 m 382 725 l 382 625 l 236 407 l 382 189 l 382 89 l 96 350 l 96 464 l 382 725 z "},"¬":{"ha":1047,"x_min":132,"x_max":916,"o":"m 132 612 l 915 612 l 915 195 l 775 195 l 775 458 l 132 458 l 132 612 z "},"­":{"ha":519,"x_min":67,"x_max":452,"o":"m 68 464 l 451 464 l 451 281 l 68 281 l 68 464 z "},"®":{"ha":1250,"x_min":172,"x_max":1078,"o":"m 711 511 q 753 486 735 504 q 784 440 772 468 l 845 294 l 882 294 l 882 239 l 745 239 l 674 411 q 636 472 654 457 q 585 486 618 486 l 569 486 l 569 294 l 621 294 l 621 239 l 396 239 l 396 294 l 449 294 l 449 730 l 396 730 l 396 786 l 673 786 q 788 749 746 786 q 830 647 830 711 q 800 552 830 587 q 711 511 770 517 m 569 542 l 610 542 q 684 566 658 542 q 710 636 710 591 q 684 706 710 682 q 610 730 658 730 l 569 730 l 569 542 m 625 1007 q 798 970 718 1007 q 945 859 878 932 q 1044 696 1011 785 q 1077 503 1077 607 q 1044 311 1077 399 q 945 149 1011 222 q 798 37 878 75 q 625 0 718 0 q 452 37 532 0 q 305 149 372 75 q 206 311 239 222 q 173 503 173 399 q 206 696 173 607 q 305 859 239 785 q 452 970 372 932 q 625 1007 532 1007 m 625 903 q 488 873 551 903 q 371 785 425 844 q 292 656 319 726 q 266 503 266 586 q 292 350 266 420 q 371 221 319 279 q 488 134 424 163 q 625 104 551 104 q 763 133 700 104 q 879 221 826 162 q 958 350 931 279 q 984 503 984 420 q 958 656 984 586 q 879 785 931 726 q 762 873 825 844 q 625 903 699 903 z "},"¯":{"ha":625,"x_min":120,"x_max":505,"o":"m 120 1050 l 505 1050 l 505 922 l 120 922 l 120 1050 z "},"°":{"ha":625,"x_min":109,"x_max":515,"o":"m 313 1040 q 390 1023 353 1040 q 456 974 427 1006 q 500 901 486 941 q 515 814 515 860 q 500 727 515 768 q 458 656 486 686 q 391 606 429 623 q 311 589 353 589 q 167 653 225 589 q 109 814 109 718 q 168 975 109 909 q 313 1040 227 1040 m 313 930 q 238 897 269 930 q 208 814 208 863 q 238 732 208 765 q 313 699 268 699 q 387 732 357 699 q 418 814 418 766 q 387 897 418 863 q 313 930 356 930 z "},"±":{"ha":1047,"x_min":132,"x_max":916,"o":"m 132 154 l 915 154 l 915 0 l 132 0 l 132 154 m 594 871 l 594 628 l 915 628 l 915 473 l 594 473 l 594 231 l 454 231 l 454 473 l 132 473 l 132 628 l 454 628 l 454 871 l 594 871 z "},"²":{"ha":547,"x_min":52,"x_max":477,"o":"m 115 871 l 58 871 l 58 1003 q 147 1024 101 1017 q 242 1031 193 1031 q 414 987 353 1031 q 475 867 475 944 q 441 767 475 811 q 313 663 408 724 l 163 568 l 416 568 l 416 633 l 477 633 l 477 464 l 52 464 l 52 554 l 132 611 q 276 742 245 694 q 307 852 307 789 q 281 942 307 909 q 211 974 256 974 q 146 946 173 974 q 115 871 119 918 z "},"³":{"ha":547,"x_min":55,"x_max":498,"o":"m 68 1004 q 167 1024 121 1017 q 252 1031 212 1031 q 418 995 361 1031 q 475 892 475 960 q 443 811 475 843 q 349 768 411 779 q 460 720 422 758 q 498 619 498 682 q 435 495 498 536 q 250 453 373 453 q 153 460 201 453 q 55 482 104 467 l 55 618 l 113 618 q 144 537 118 564 q 218 510 170 510 q 300 539 272 510 q 329 624 329 568 q 299 708 329 678 q 214 737 269 737 l 189 737 l 189 794 l 208 794 q 283 817 257 794 q 310 884 310 840 q 286 950 310 926 q 218 974 262 974 q 154 949 178 974 q 126 881 130 924 l 68 880 l 68 1004 z "},"´":{"ha":625,"x_min":211,"x_max":539,"o":"m 369 1111 l 539 1111 l 311 856 l 211 856 l 369 1111 z "},"µ":{"ha":915,"x_min":35,"x_max":873,"o":"m 780 721 l 780 82 l 873 82 l 873 0 l 564 0 l 564 85 q 497 4 530 28 q 418 -20 464 -20 q 382 -13 400 -20 q 344 8 363 -6 l 344 -207 l 437 -207 l 437 -289 l 35 -289 l 35 -207 l 127 -207 l 127 639 l 35 639 l 35 721 l 344 721 l 344 317 q 365 130 344 168 q 439 93 385 93 q 534 147 503 93 q 564 317 564 201 l 564 639 l 484 639 l 484 721 l 780 721 z "},"¶":{"ha":795,"x_min":90,"x_max":720,"o":"m 380 1013 l 719 1013 l 719 928 l 650 928 l 650 -134 l 557 -134 l 557 928 l 458 928 l 458 -134 l 365 -134 l 365 440 q 162 527 234 452 q 90 726 90 602 q 169 934 90 855 q 380 1013 248 1013 z "},"·":{"ha":435,"x_min":101,"x_max":334,"o":"m 101 482 q 135 573 101 535 q 217 611 170 611 q 300 573 266 611 q 334 482 334 535 q 300 392 334 429 q 217 354 266 354 q 135 392 170 354 q 101 482 101 429 z "},"¸":{"ha":625,"x_min":159,"x_max":437,"o":"m 363 0 q 418 -80 400 -43 q 437 -153 437 -117 q 397 -241 437 -211 q 283 -272 357 -272 q 223 -268 254 -272 q 161 -254 193 -263 l 160 -149 q 213 -166 187 -160 q 261 -172 239 -172 q 317 -156 298 -172 q 336 -110 336 -140 q 326 -68 336 -91 q 285 0 316 -46 l 363 0 z "},"¹":{"ha":547,"x_min":87,"x_max":462,"o":"m 99 464 l 99 528 l 199 528 l 199 943 l 87 875 l 87 946 l 222 1031 l 361 1031 l 361 528 l 461 528 l 461 464 l 99 464 z "},"º":{"ha":625,"x_min":37,"x_max":588,"o":"m 69 433 l 556 433 l 556 342 l 69 342 l 69 433 m 313 558 q 379 606 359 558 q 400 765 400 654 q 379 924 400 876 q 313 972 359 972 q 245 925 266 972 q 225 765 225 878 q 245 606 225 653 q 313 558 266 558 m 313 500 q 110 570 183 500 q 37 765 37 641 q 110 960 37 889 q 313 1031 183 1031 q 515 960 442 1031 q 588 765 588 889 q 515 570 588 641 q 313 500 442 500 z "},"»":{"ha":781,"x_min":117,"x_max":685,"o":"m 118 725 l 404 464 l 404 350 l 118 89 l 118 189 l 264 407 l 118 625 l 118 725 m 399 725 l 685 464 l 685 350 l 399 89 l 399 189 l 545 407 l 399 625 l 399 725 z "},"¼":{"ha":1303,"x_min":87,"x_max":1261,"o":"m 1247 11 l 931 11 l 931 75 l 1008 75 l 1008 157 l 786 157 l 786 216 l 1017 578 l 1171 578 l 1171 220 l 1261 220 l 1261 157 l 1171 157 l 1171 75 l 1247 75 l 1247 11 m 1008 220 l 1008 447 l 861 220 l 1008 220 m 99 464 l 99 528 l 199 528 l 199 943 l 87 875 l 87 946 l 222 1031 l 361 1031 l 361 528 l 461 528 l 461 464 l 99 464 m 885 1031 l 989 1031 l 418 -20 l 315 -20 l 885 1031 z "},"½":{"ha":1303,"x_min":87,"x_max":1234,"o":"m 99 464 l 99 528 l 199 528 l 199 943 l 87 875 l 87 946 l 222 1031 l 361 1031 l 361 528 l 461 528 l 461 464 l 99 464 m 885 1031 l 989 1031 l 418 -20 l 315 -20 l 885 1031 m 871 418 l 814 418 l 814 550 q 903 571 857 564 q 998 578 949 578 q 1170 534 1109 578 q 1231 414 1231 491 q 1198 314 1231 358 q 1069 210 1164 271 l 920 115 l 1173 115 l 1173 180 l 1234 180 l 1234 11 l 808 11 l 808 101 l 888 158 q 1032 289 1002 241 q 1063 399 1063 336 q 1037 489 1063 456 q 967 521 1012 521 q 902 493 929 521 q 871 418 876 465 z "},"¾":{"ha":1303,"x_min":55,"x_max":1261,"o":"m 1247 11 l 931 11 l 931 75 l 1008 75 l 1008 157 l 786 157 l 786 216 l 1017 578 l 1171 578 l 1171 220 l 1261 220 l 1261 157 l 1171 157 l 1171 75 l 1247 75 l 1247 11 m 1008 220 l 1008 447 l 861 220 l 1008 220 m 68 1004 q 167 1024 121 1017 q 252 1031 212 1031 q 418 995 361 1031 q 475 892 475 960 q 443 811 475 843 q 349 768 411 779 q 460 720 422 758 q 498 619 498 682 q 435 495 498 536 q 250 453 373 453 q 153 460 201 453 q 55 482 104 467 l 55 618 l 113 618 q 144 537 118 564 q 218 510 170 510 q 300 539 272 510 q 329 624 329 568 q 299 708 329 678 q 214 737 269 737 l 189 737 l 189 794 l 208 794 q 283 817 257 794 q 310 884 310 840 q 286 950 310 926 q 218 974 262 974 q 154 949 178 974 q 126 881 130 924 l 68 880 l 68 1004 m 885 1031 l 989 1031 l 418 -20 l 315 -20 l 885 1031 z "},"¿":{"ha":732,"x_min":56,"x_max":652,"o":"m 524 648 q 489 558 524 595 q 408 521 455 521 q 326 558 359 521 q 292 648 292 595 q 326 740 292 702 q 408 778 360 778 q 489 740 455 778 q 524 648 524 701 m 651 -227 q 507 -261 576 -250 q 375 -273 439 -273 q 139 -198 221 -273 q 56 16 56 -123 q 136 232 56 153 q 365 323 216 311 l 365 463 l 450 463 l 450 260 q 325 168 365 231 q 285 1 285 105 q 322 -146 285 -97 q 433 -196 359 -196 q 535 -151 499 -196 q 578 -18 572 -106 l 651 -18 l 651 -227 z "},"À":{"ha":970,"x_min":-10,"x_max":984,"o":"m -9 0 l -9 82 l 64 82 l 408 1013 l 553 1013 l 897 82 l 984 82 l 984 0 l 557 0 l 557 82 l 646 82 l 571 289 l 229 289 l 153 82 l 261 82 l 261 0 l -9 0 m 259 371 l 541 371 l 401 758 l 259 371 m 462 1288 l 573 1109 l 473 1109 l 292 1288 l 462 1288 z "},"Á":{"ha":970,"x_min":-10,"x_max":984,"o":"m -9 0 l -9 82 l 64 82 l 408 1013 l 553 1013 l 897 82 l 984 82 l 984 0 l 557 0 l 557 82 l 646 82 l 571 289 l 229 289 l 153 82 l 261 82 l 261 0 l -9 0 m 259 371 l 541 371 l 401 758 l 259 371 m 481 1288 l 652 1288 l 470 1109 l 370 1109 l 481 1288 z "},"Â":{"ha":970,"x_min":-10,"x_max":984,"o":"m -9 0 l -9 82 l 64 82 l 408 1013 l 553 1013 l 897 82 l 984 82 l 984 0 l 557 0 l 557 82 l 646 82 l 571 289 l 229 289 l 153 82 l 261 82 l 261 0 l -9 0 m 259 371 l 541 371 l 401 758 l 259 371 m 378 1288 l 566 1288 l 701 1109 l 602 1109 l 471 1218 l 342 1109 l 241 1109 l 378 1288 z "},"Ã":{"ha":970,"x_min":-10,"x_max":984,"o":"m -9 0 l -9 82 l 64 82 l 408 1013 l 553 1013 l 897 82 l 984 82 l 984 0 l 557 0 l 557 82 l 646 82 l 571 289 l 229 289 l 153 82 l 261 82 l 261 0 l -9 0 m 259 371 l 541 371 l 401 758 l 259 371 m 253 1109 l 253 1117 q 286 1245 253 1200 q 380 1291 319 1291 q 466 1264 417 1291 q 474 1260 471 1261 l 518 1238 q 546 1226 535 1229 q 568 1223 557 1223 q 608 1240 593 1223 q 623 1286 623 1257 l 623 1289 l 690 1289 l 690 1279 q 657 1152 690 1196 q 563 1107 625 1107 q 522 1114 543 1107 q 469 1138 501 1120 l 434 1157 q 402 1171 418 1166 q 375 1175 387 1175 q 335 1158 350 1175 q 320 1112 320 1141 l 320 1109 l 253 1109 z "},"Ä":{"ha":970,"x_min":-10,"x_max":984,"o":"m -9 0 l -9 82 l 64 82 l 408 1013 l 553 1013 l 897 82 l 984 82 l 984 0 l 557 0 l 557 82 l 646 82 l 571 289 l 229 289 l 153 82 l 261 82 l 261 0 l -9 0 m 259 371 l 541 371 l 401 758 l 259 371 m 245 1204 q 272 1275 245 1245 q 335 1304 298 1304 q 398 1275 372 1304 q 424 1204 424 1245 q 398 1135 424 1164 q 335 1105 372 1105 q 272 1135 298 1105 q 245 1204 245 1164 m 518 1204 q 545 1275 518 1245 q 608 1304 571 1304 q 671 1275 644 1304 q 698 1204 698 1245 q 671 1135 698 1164 q 608 1105 644 1105 q 545 1135 571 1105 q 518 1204 518 1164 z "},"Å":{"ha":970,"x_min":-10,"x_max":984,"o":"m 401 1096 q 425 1033 401 1059 q 481 1007 449 1007 q 538 1033 515 1007 q 562 1096 562 1059 q 538 1159 562 1133 q 481 1185 514 1185 q 425 1159 449 1185 q 401 1096 401 1133 m -9 0 l -9 82 l 64 82 l 381 939 q 327 1005 346 964 q 308 1096 308 1046 q 359 1232 308 1175 q 481 1289 410 1289 q 604 1232 553 1289 q 655 1096 655 1175 q 636 1006 655 1046 q 581 939 618 966 l 897 82 l 984 82 l 984 0 l 557 0 l 557 82 l 646 82 l 571 289 l 229 289 l 153 82 l 261 82 l 261 0 l -9 0 m 259 371 l 541 371 l 402 758 l 259 371 z "},"Æ":{"ha":1293,"x_min":-39,"x_max":1227,"o":"m 245 370 l 528 370 l 528 930 l 483 930 l 245 370 m 412 0 l 412 82 l 528 82 l 528 288 l 210 288 l 123 82 l 222 82 l 222 0 l -39 0 l -39 82 l 31 82 l 393 930 l 270 930 l 270 1013 l 1217 1013 l 1217 774 l 1133 774 l 1133 920 l 765 920 l 765 595 l 989 595 l 989 724 l 1072 724 l 1072 374 l 989 374 l 989 503 l 765 503 l 765 93 l 1145 93 l 1145 239 l 1227 239 l 1227 0 l 412 0 z "},"Ç":{"ha":995,"x_min":52,"x_max":932,"o":"m 931 289 q 802 56 895 132 q 551 -20 709 -20 q 186 122 320 -20 q 52 505 52 263 q 186 889 52 748 q 551 1031 320 1031 q 720 1009 632 1031 q 906 943 808 987 l 906 694 l 829 694 q 742 885 805 822 q 576 949 680 949 q 378 840 443 949 q 314 505 314 731 q 378 171 314 279 q 577 62 443 62 q 726 119 669 62 q 810 289 784 175 l 931 289 m 587 0 q 642 -80 624 -43 q 661 -153 661 -117 q 621 -241 661 -211 q 507 -272 581 -272 q 447 -268 478 -272 q 385 -254 416 -263 l 384 -149 q 437 -166 411 -160 q 485 -172 463 -172 q 541 -156 522 -172 q 560 -110 560 -140 q 550 -68 560 -91 q 509 0 540 -46 l 587 0 z "},"È":{"ha":952,"x_min":58,"x_max":889,"o":"m 58 0 l 58 82 l 175 82 l 175 930 l 58 930 l 58 1013 l 878 1013 l 878 774 l 793 774 l 793 920 l 410 920 l 410 595 l 649 595 l 649 724 l 732 724 l 732 374 l 649 374 l 649 503 l 410 503 l 410 93 l 805 93 l 805 239 l 888 239 l 888 0 l 58 0 m 488 1288 l 599 1109 l 498 1109 l 317 1288 l 488 1288 z "},"É":{"ha":952,"x_min":58,"x_max":889,"o":"m 58 0 l 58 82 l 175 82 l 175 930 l 58 930 l 58 1013 l 878 1013 l 878 774 l 793 774 l 793 920 l 410 920 l 410 595 l 649 595 l 649 724 l 732 724 l 732 374 l 649 374 l 649 503 l 410 503 l 410 93 l 805 93 l 805 239 l 888 239 l 888 0 l 58 0 m 507 1288 l 677 1288 l 496 1109 l 396 1109 l 507 1288 z "},"Ê":{"ha":952,"x_min":58,"x_max":889,"o":"m 58 0 l 58 82 l 175 82 l 175 930 l 58 930 l 58 1013 l 878 1013 l 878 774 l 793 774 l 793 920 l 410 920 l 410 595 l 649 595 l 649 724 l 732 724 l 732 374 l 649 374 l 649 503 l 410 503 l 410 93 l 805 93 l 805 239 l 888 239 l 888 0 l 58 0 m 404 1288 l 591 1288 l 727 1109 l 627 1109 l 497 1218 l 368 1109 l 267 1109 l 404 1288 z "},"Ë":{"ha":952,"x_min":58,"x_max":889,"o":"m 58 0 l 58 82 l 175 82 l 175 930 l 58 930 l 58 1013 l 878 1013 l 878 774 l 793 774 l 793 920 l 410 920 l 410 595 l 649 595 l 649 724 l 732 724 l 732 374 l 649 374 l 649 503 l 410 503 l 410 93 l 805 93 l 805 239 l 888 239 l 888 0 l 58 0 m 271 1204 q 297 1275 271 1245 q 361 1304 324 1304 q 424 1275 397 1304 q 450 1204 450 1245 q 424 1135 450 1164 q 361 1105 397 1105 q 297 1135 324 1105 q 271 1204 271 1164 m 544 1204 q 570 1275 544 1245 q 633 1304 597 1304 q 697 1275 670 1304 q 724 1204 724 1245 q 697 1135 724 1164 q 633 1105 670 1105 q 570 1135 597 1105 q 544 1204 544 1164 z "},"Ì":{"ha":585,"x_min":58,"x_max":528,"o":"m 58 0 l 58 82 l 175 82 l 175 930 l 58 930 l 58 1013 l 528 1013 l 528 930 l 410 930 l 410 82 l 528 82 l 528 0 l 58 0 m 283 1288 l 394 1109 l 294 1109 l 113 1288 l 283 1288 z "},"Í":{"ha":585,"x_min":58,"x_max":528,"o":"m 58 0 l 58 82 l 175 82 l 175 930 l 58 930 l 58 1013 l 528 1013 l 528 930 l 410 930 l 410 82 l 528 82 l 528 0 l 58 0 m 302 1288 l 473 1288 l 291 1109 l 191 1109 l 302 1288 z "},"Î":{"ha":585,"x_min":58,"x_max":528,"o":"m 58 0 l 58 82 l 175 82 l 175 930 l 58 930 l 58 1013 l 528 1013 l 528 930 l 410 930 l 410 82 l 528 82 l 528 0 l 58 0 m 199 1288 l 387 1288 l 522 1109 l 422 1109 l 292 1218 l 163 1109 l 62 1109 l 199 1288 z "},"Ï":{"ha":585,"x_min":58,"x_max":528,"o":"m 58 0 l 58 82 l 175 82 l 175 930 l 58 930 l 58 1013 l 528 1013 l 528 930 l 410 930 l 410 82 l 528 82 l 528 0 l 58 0 m 66 1204 q 93 1275 66 1245 q 156 1304 119 1304 q 219 1275 193 1304 q 245 1204 245 1245 q 219 1135 245 1164 q 156 1105 193 1105 q 93 1135 119 1105 q 66 1204 66 1164 m 339 1204 q 366 1275 339 1245 q 429 1304 392 1304 q 492 1275 465 1304 q 519 1204 519 1245 q 492 1135 519 1164 q 429 1105 465 1105 q 366 1135 392 1105 q 339 1204 339 1164 z "},"Ð":{"ha":1093,"x_min":54,"x_max":1039,"o":"m 418 82 l 503 82 q 712 183 646 82 q 778 507 778 285 q 712 829 778 728 q 503 930 646 930 l 418 930 l 418 576 l 621 576 l 621 484 l 418 484 l 418 82 m 66 0 l 66 82 l 184 82 l 184 484 l 54 484 l 54 576 l 184 576 l 184 930 l 66 930 l 66 1013 l 535 1013 q 909 883 779 1013 q 1039 507 1039 753 q 909 131 1039 261 q 535 0 779 0 l 66 0 z "},"Ñ":{"ha":1142,"x_min":55,"x_max":1093,"o":"m 55 0 l 55 82 l 172 82 l 172 930 l 55 930 l 55 1013 l 340 1013 l 890 296 l 890 930 l 774 930 l 774 1013 l 1093 1013 l 1093 930 l 976 930 l 976 0 l 816 0 l 258 732 l 258 82 l 374 82 l 374 0 l 55 0 m 353 1109 l 353 1117 q 386 1245 353 1200 q 479 1291 418 1291 q 566 1264 517 1291 q 574 1260 571 1261 l 618 1238 q 646 1226 635 1229 q 667 1223 656 1223 q 707 1240 692 1223 q 722 1286 722 1257 l 722 1289 l 789 1289 l 789 1279 q 757 1152 789 1196 q 663 1107 724 1107 q 622 1114 642 1107 q 569 1138 601 1120 l 534 1157 q 502 1171 517 1166 q 475 1175 486 1175 q 435 1158 450 1175 q 420 1112 420 1141 l 420 1109 l 353 1109 z "},"Ò":{"ha":1088,"x_min":52,"x_max":1036,"o":"m 544 62 q 717 172 661 62 q 774 505 774 281 q 717 840 774 730 q 544 949 661 949 q 371 839 428 949 q 314 505 314 728 q 371 173 314 283 q 544 62 428 62 m 544 -20 q 183 120 314 -20 q 52 505 52 260 q 183 891 52 751 q 544 1031 315 1031 q 904 891 774 1031 q 1035 505 1035 751 q 904 120 1035 260 q 544 -20 773 -20 m 535 1288 l 646 1109 l 546 1109 l 365 1288 l 535 1288 z "},"Ó":{"ha":1088,"x_min":52,"x_max":1036,"o":"m 544 62 q 717 172 661 62 q 774 505 774 281 q 717 840 774 730 q 544 949 661 949 q 371 839 428 949 q 314 505 314 728 q 371 173 314 283 q 544 62 428 62 m 544 -20 q 183 120 314 -20 q 52 505 52 260 q 183 891 52 751 q 544 1031 315 1031 q 904 891 774 1031 q 1035 505 1035 751 q 904 120 1035 260 q 544 -20 773 -20 m 555 1288 l 725 1288 l 543 1109 l 444 1109 l 555 1288 z "},"Ô":{"ha":1088,"x_min":52,"x_max":1036,"o":"m 544 62 q 717 172 661 62 q 774 505 774 281 q 717 840 774 730 q 544 949 661 949 q 371 839 428 949 q 314 505 314 728 q 371 173 314 283 q 544 62 428 62 m 544 -20 q 183 120 314 -20 q 52 505 52 260 q 183 891 52 751 q 544 1031 315 1031 q 904 891 774 1031 q 1035 505 1035 751 q 904 120 1035 260 q 544 -20 773 -20 m 451 1288 l 639 1288 l 774 1109 l 675 1109 l 545 1218 l 415 1109 l 315 1109 l 451 1288 z "},"Õ":{"ha":1088,"x_min":52,"x_max":1036,"o":"m 544 62 q 717 172 661 62 q 774 505 774 281 q 717 840 774 730 q 544 949 661 949 q 371 839 428 949 q 314 505 314 728 q 371 173 314 283 q 544 62 428 62 m 544 -20 q 183 120 314 -20 q 52 505 52 260 q 183 891 52 751 q 544 1031 315 1031 q 904 891 774 1031 q 1035 505 1035 751 q 904 120 1035 260 q 544 -20 773 -20 m 326 1109 l 326 1117 q 359 1245 326 1200 q 453 1291 392 1291 q 539 1264 490 1291 q 547 1260 545 1261 l 591 1238 q 619 1226 608 1229 q 641 1223 630 1223 q 681 1240 666 1223 q 696 1286 696 1257 l 696 1289 l 763 1289 l 763 1279 q 730 1152 763 1196 q 636 1107 698 1107 q 595 1114 616 1107 q 543 1138 574 1120 l 507 1157 q 475 1171 491 1166 q 448 1175 460 1175 q 408 1158 423 1175 q 393 1112 393 1141 l 393 1109 l 326 1109 z "},"Ö":{"ha":1088,"x_min":52,"x_max":1036,"o":"m 544 62 q 717 172 661 62 q 774 505 774 281 q 717 840 774 730 q 544 949 661 949 q 371 839 428 949 q 314 505 314 728 q 371 173 314 283 q 544 62 428 62 m 544 -20 q 183 120 314 -20 q 52 505 52 260 q 183 891 52 751 q 544 1031 315 1031 q 904 891 774 1031 q 1035 505 1035 751 q 904 120 1035 260 q 544 -20 773 -20 m 318 1204 q 345 1275 318 1245 q 408 1304 372 1304 q 471 1275 445 1304 q 497 1204 497 1245 q 471 1135 497 1164 q 408 1105 445 1105 q 345 1135 372 1105 q 318 1204 318 1164 m 591 1204 q 618 1275 591 1245 q 681 1304 644 1304 q 744 1275 718 1304 q 771 1204 771 1245 q 744 1135 771 1164 q 681 1105 718 1105 q 618 1135 644 1105 q 591 1204 591 1164 z "},"×":{"ha":1047,"x_min":161,"x_max":886,"o":"m 886 733 l 618 435 l 886 136 l 792 32 l 524 330 l 255 32 l 161 136 l 430 435 l 161 733 l 255 839 l 524 541 l 792 839 l 886 733 z "},"Ø":{"ha":1088,"x_min":41,"x_max":1046,"o":"m 327 325 l 740 785 q 664 907 714 865 q 544 949 614 949 q 371 839 428 949 q 314 505 314 728 q 317 409 314 454 q 327 325 320 364 m 349 227 q 425 103 376 144 q 544 62 473 62 q 719 176 663 62 q 775 532 775 289 q 771 610 775 576 q 760 673 768 644 l 349 227 m 925 868 q 1007 707 980 798 q 1035 505 1035 616 q 904 120 1035 260 q 544 -20 773 -20 q 367 7 448 -20 q 221 86 286 33 l 96 -53 l 41 8 l 163 144 q 80 304 108 214 q 52 505 52 395 q 183 891 52 751 q 544 1031 315 1031 q 723 1005 642 1031 q 867 926 804 979 l 991 1064 l 1046 1003 l 925 868 z "},"Ù":{"ha":1090,"x_min":43,"x_max":1063,"o":"m 159 930 l 43 930 l 43 1013 l 511 1013 l 511 930 l 395 930 l 395 424 q 448 159 395 235 q 630 83 501 83 q 808 160 755 83 q 861 424 861 236 l 861 930 l 745 930 l 745 1013 l 1063 1013 l 1063 930 l 946 930 l 946 410 q 856 79 946 178 q 552 -20 766 -20 q 250 80 340 -20 q 159 411 159 180 l 159 930 m 566 1288 l 677 1109 l 577 1109 l 396 1288 l 566 1288 z "},"Ú":{"ha":1090,"x_min":43,"x_max":1063,"o":"m 159 930 l 43 930 l 43 1013 l 511 1013 l 511 930 l 395 930 l 395 424 q 448 159 395 235 q 630 83 501 83 q 808 160 755 83 q 861 424 861 236 l 861 930 l 745 930 l 745 1013 l 1063 1013 l 1063 930 l 946 930 l 946 410 q 856 79 946 178 q 552 -20 766 -20 q 250 80 340 -20 q 159 411 159 180 l 159 930 m 586 1288 l 756 1288 l 574 1109 l 475 1109 l 586 1288 z "},"Û":{"ha":1090,"x_min":43,"x_max":1063,"o":"m 159 930 l 43 930 l 43 1013 l 511 1013 l 511 930 l 395 930 l 395 424 q 448 159 395 235 q 630 83 501 83 q 808 160 755 83 q 861 424 861 236 l 861 930 l 745 930 l 745 1013 l 1063 1013 l 1063 930 l 946 930 l 946 410 q 856 79 946 178 q 552 -20 766 -20 q 250 80 340 -20 q 159 411 159 180 l 159 930 m 482 1288 l 670 1288 l 806 1109 l 706 1109 l 576 1218 l 446 1109 l 346 1109 l 482 1288 z "},"Ü":{"ha":1090,"x_min":43,"x_max":1063,"o":"m 159 930 l 43 930 l 43 1013 l 511 1013 l 511 930 l 395 930 l 395 424 q 448 159 395 235 q 630 83 501 83 q 808 160 755 83 q 861 424 861 236 l 861 930 l 745 930 l 745 1013 l 1063 1013 l 1063 930 l 946 930 l 946 410 q 856 79 946 178 q 552 -20 766 -20 q 250 80 340 -20 q 159 411 159 180 l 159 930 m 349 1204 q 376 1275 349 1245 q 439 1304 403 1304 q 502 1275 476 1304 q 528 1204 528 1245 q 502 1135 528 1164 q 439 1105 476 1105 q 376 1135 403 1105 q 349 1204 349 1164 m 623 1204 q 649 1275 623 1245 q 712 1304 675 1304 q 775 1275 749 1304 q 802 1204 802 1245 q 775 1135 802 1164 q 712 1105 749 1105 q 649 1135 675 1105 q 623 1204 623 1164 z "},"Ý":{"ha":892,"x_min":-12,"x_max":904,"o":"m 215 0 l 215 82 l 338 82 l 338 419 l 66 930 l -11 930 l -11 1013 l 426 1013 l 426 930 l 325 930 l 530 545 l 734 930 l 643 930 l 643 1013 l 904 1013 l 904 930 l 827 930 l 574 454 l 574 82 l 696 82 l 696 0 l 215 0 m 456 1288 l 627 1288 l 445 1109 l 345 1109 l 456 1288 z "},"Þ":{"ha":946,"x_min":58,"x_max":909,"o":"m 58 0 l 58 82 l 175 82 l 175 930 l 58 930 l 58 1013 l 556 1013 l 556 930 l 410 930 l 410 815 l 577 815 q 819 735 730 815 q 909 519 909 654 q 819 303 909 385 q 577 222 729 222 l 410 222 l 410 82 l 557 82 l 557 0 l 58 0 m 410 304 l 479 304 q 605 363 558 304 q 652 519 652 421 q 606 675 652 617 q 479 733 559 733 l 410 733 l 410 304 z "},"ß":{"ha":949,"x_min":43,"x_max":907,"o":"m 608 828 q 575 946 604 912 q 477 979 546 979 q 381 939 411 979 q 351 807 351 899 l 351 0 l 43 0 l 43 82 l 135 82 l 135 778 q 220 985 135 914 q 470 1055 306 1055 q 713 984 631 1055 q 811 757 795 912 l 798 757 q 655 726 703 757 q 606 635 606 695 q 620 585 606 608 q 685 521 634 562 l 739 478 q 876 338 846 391 q 906 211 906 284 q 830 41 906 102 q 618 -20 754 -20 q 515 -9 569 -20 q 401 21 462 1 l 401 196 l 475 196 q 513 90 483 123 q 600 57 543 57 q 675 87 646 57 q 704 165 704 117 q 604 316 704 237 q 584 332 591 326 l 530 375 q 440 478 467 425 q 412 603 412 532 q 461 750 412 694 q 608 828 510 806 z "},"à":{"ha":810,"x_min":51,"x_max":781,"o":"m 688 443 l 688 82 l 781 82 l 781 0 l 473 0 l 473 92 q 377 7 430 35 q 258 -20 325 -20 q 105 40 158 -20 q 52 210 52 99 q 128 391 52 331 q 359 452 205 452 l 473 452 l 473 494 q 435 624 473 582 q 320 665 398 665 q 220 636 255 665 q 170 539 185 606 l 101 539 l 101 694 q 221 729 159 718 q 353 741 283 741 q 608 669 527 741 q 688 443 688 597 m 473 227 l 473 371 l 391 371 q 298 334 331 371 q 266 229 266 298 q 290 127 266 161 q 361 93 313 93 q 442 130 412 93 q 473 227 473 166 m 310 1111 l 467 856 l 368 856 l 140 1111 l 310 1111 z "},"á":{"ha":810,"x_min":51,"x_max":781,"o":"m 688 443 l 688 82 l 781 82 l 781 0 l 473 0 l 473 92 q 377 7 430 35 q 258 -20 325 -20 q 105 40 158 -20 q 52 210 52 99 q 128 391 52 331 q 359 452 205 452 l 473 452 l 473 494 q 435 624 473 582 q 320 665 398 665 q 220 636 255 665 q 170 539 185 606 l 101 539 l 101 694 q 221 729 159 718 q 353 741 283 741 q 608 669 527 741 q 688 443 688 597 m 473 227 l 473 371 l 391 371 q 298 334 331 371 q 266 229 266 298 q 290 127 266 161 q 361 93 313 93 q 442 130 412 93 q 473 227 473 166 m 422 1111 l 593 1111 l 365 856 l 264 856 l 422 1111 z "},"â":{"ha":810,"x_min":51,"x_max":781,"o":"m 688 443 l 688 82 l 781 82 l 781 0 l 473 0 l 473 92 q 377 7 430 35 q 258 -20 325 -20 q 105 40 158 -20 q 52 210 52 99 q 128 391 52 331 q 359 452 205 452 l 473 452 l 473 494 q 435 624 473 582 q 320 665 398 665 q 220 636 255 665 q 170 539 185 606 l 101 539 l 101 694 q 221 729 159 718 q 353 741 283 741 q 608 669 527 741 q 688 443 688 597 m 473 227 l 473 371 l 391 371 q 298 334 331 371 q 266 229 266 298 q 290 127 266 161 q 361 93 313 93 q 442 130 412 93 q 473 227 473 166 m 292 1111 l 440 1111 l 596 856 l 496 856 l 366 1008 l 236 856 l 136 856 l 292 1111 z "},"ã":{"ha":810,"x_min":51,"x_max":781,"o":"m 688 443 l 688 82 l 781 82 l 781 0 l 473 0 l 473 92 q 377 7 430 35 q 258 -20 325 -20 q 105 40 158 -20 q 52 210 52 99 q 128 391 52 331 q 359 452 205 452 l 473 452 l 473 494 q 435 624 473 582 q 320 665 398 665 q 220 636 255 665 q 170 539 185 606 l 101 539 l 101 694 q 221 729 159 718 q 353 741 283 741 q 608 669 527 741 q 688 443 688 597 m 473 227 l 473 371 l 391 371 q 298 334 331 371 q 266 229 266 298 q 290 127 266 161 q 361 93 313 93 q 442 130 412 93 q 473 227 473 166 m 148 888 l 148 899 q 180 1049 148 998 q 275 1100 212 1100 q 319 1092 297 1100 q 368 1063 340 1083 l 412 1031 l 414 1029 q 463 1010 441 1010 q 503 1034 488 1010 q 517 1099 517 1057 l 585 1099 l 585 1088 q 552 938 585 989 q 458 886 520 886 q 413 895 435 886 q 363 924 392 903 l 319 956 l 319 956 q 270 977 292 977 q 230 953 245 977 q 215 888 215 929 l 148 888 z "},"ä":{"ha":810,"x_min":51,"x_max":781,"o":"m 688 443 l 688 82 l 781 82 l 781 0 l 473 0 l 473 92 q 377 7 430 35 q 258 -20 325 -20 q 105 40 158 -20 q 52 210 52 99 q 128 391 52 331 q 359 452 205 452 l 473 452 l 473 494 q 435 624 473 582 q 320 665 398 665 q 220 636 255 665 q 170 539 185 606 l 101 539 l 101 694 q 221 729 159 718 q 353 741 283 741 q 608 669 527 741 q 688 443 688 597 m 473 227 l 473 371 l 391 371 q 298 334 331 371 q 266 229 266 298 q 290 127 266 161 q 361 93 313 93 q 442 130 412 93 q 473 227 473 166 m 140 996 q 166 1065 140 1036 q 230 1095 193 1095 q 293 1065 267 1095 q 319 996 319 1036 q 292 925 319 955 q 230 896 266 896 q 166 926 193 896 q 140 996 140 956 m 412 996 q 439 1065 412 1036 q 503 1095 466 1095 q 566 1065 539 1095 q 593 996 593 1036 q 566 926 593 956 q 503 896 539 896 q 439 926 466 896 q 412 996 412 956 z "},"å":{"ha":810,"x_min":51,"x_max":781,"o":"m 688 443 l 688 82 l 781 82 l 781 0 l 473 0 l 473 92 q 377 7 430 35 q 258 -20 325 -20 q 105 40 158 -20 q 52 210 52 99 q 128 391 52 331 q 359 452 205 452 l 473 452 l 473 494 q 435 624 473 582 q 320 665 398 665 q 220 636 255 665 q 170 539 185 606 l 101 539 l 101 694 q 221 729 159 718 q 353 741 283 741 q 608 669 527 741 q 688 443 688 597 m 473 227 l 473 371 l 391 371 q 298 334 331 371 q 266 229 266 298 q 290 127 266 161 q 361 93 313 93 q 442 130 412 93 q 473 227 473 166 m 192 1040 q 243 1177 192 1120 q 366 1234 294 1234 q 489 1177 438 1234 q 540 1040 540 1120 q 489 904 540 960 q 366 847 438 847 q 243 904 294 847 q 192 1040 192 960 m 286 1040 q 310 977 286 1003 q 366 951 333 951 q 423 978 399 951 q 446 1040 446 1004 q 422 1103 446 1077 q 366 1129 399 1129 q 309 1103 332 1129 q 286 1040 286 1077 z "},"æ":{"ha":1219,"x_min":51,"x_max":1161,"o":"m 924 407 q 900 607 924 549 q 819 664 876 664 q 739 608 763 664 q 715 419 715 551 l 715 407 l 924 407 m 595 635 q 699 714 642 688 q 823 741 755 741 q 1069 635 983 741 q 1161 326 1156 530 l 715 326 l 715 321 q 753 119 715 181 q 876 57 791 57 q 987 98 945 57 q 1042 218 1030 139 l 1145 218 q 1041 38 1119 96 q 823 -20 963 -20 q 677 6 741 -20 q 566 86 614 33 q 448 7 512 33 q 308 -20 383 -20 q 117 39 182 -20 q 52 210 52 98 q 129 392 52 332 q 365 452 207 452 l 479 452 l 479 494 q 436 618 479 573 q 317 664 393 664 q 220 634 254 664 q 170 539 185 605 l 101 539 l 101 694 q 221 729 159 718 q 353 741 283 741 q 496 714 437 741 q 595 635 556 688 m 479 224 l 479 371 l 397 371 q 298 334 331 371 q 266 220 266 296 q 290 111 266 143 q 369 78 315 78 q 450 116 421 78 q 479 224 479 154 z "},"ç":{"ha":761,"x_min":51,"x_max":705,"o":"m 705 225 q 610 41 682 102 q 415 -20 538 -20 q 146 80 241 -20 q 52 361 52 180 q 145 640 52 540 q 406 741 239 741 q 543 726 474 741 q 684 684 612 712 l 684 484 l 615 484 q 567 620 606 575 q 459 664 528 664 q 331 596 369 664 q 292 361 292 528 q 330 127 292 197 q 451 57 367 57 q 556 100 516 57 q 604 225 595 144 l 705 225 m 448 0 q 503 -80 485 -43 q 522 -153 522 -117 q 482 -241 522 -211 q 368 -272 442 -272 q 308 -268 339 -272 q 245 -254 277 -263 l 245 -149 q 298 -166 272 -160 q 346 -172 324 -172 q 402 -156 382 -172 q 421 -110 421 -140 q 411 -68 421 -91 q 370 0 401 -46 l 448 0 z "},"è":{"ha":795,"x_min":51,"x_max":739,"o":"m 501 407 q 477 607 501 549 q 396 664 454 664 q 316 608 340 664 q 292 419 292 551 l 292 407 l 501 407 m 739 326 l 292 326 l 292 321 q 330 119 292 181 q 452 57 368 57 q 566 98 522 57 q 621 218 609 140 l 723 218 q 618 38 696 96 q 400 -20 540 -20 q 141 79 231 -20 q 52 361 52 178 q 143 640 52 540 q 400 741 235 741 q 647 635 561 741 q 739 326 733 530 m 341 1111 l 498 856 l 399 856 l 171 1111 l 341 1111 z "},"é":{"ha":795,"x_min":51,"x_max":739,"o":"m 501 407 q 477 607 501 549 q 396 664 454 664 q 316 608 340 664 q 292 419 292 551 l 292 407 l 501 407 m 739 326 l 292 326 l 292 321 q 330 119 292 181 q 452 57 368 57 q 566 98 522 57 q 621 218 609 140 l 723 218 q 618 38 696 96 q 400 -20 540 -20 q 141 79 231 -20 q 52 361 52 178 q 143 640 52 540 q 400 741 235 741 q 647 635 561 741 q 739 326 733 530 m 454 1111 l 624 1111 l 396 856 l 296 856 l 454 1111 z "},"ê":{"ha":795,"x_min":51,"x_max":739,"o":"m 501 407 q 477 607 501 549 q 396 664 454 664 q 316 608 340 664 q 292 419 292 551 l 292 407 l 501 407 m 739 326 l 292 326 l 292 321 q 330 119 292 181 q 452 57 368 57 q 566 98 522 57 q 621 218 609 140 l 723 218 q 618 38 696 96 q 400 -20 540 -20 q 141 79 231 -20 q 52 361 52 178 q 143 640 52 540 q 400 741 235 741 q 647 635 561 741 q 739 326 733 530 m 323 1111 l 471 1111 l 627 856 l 527 856 l 397 1008 l 267 856 l 168 856 l 323 1111 z "},"ë":{"ha":795,"x_min":51,"x_max":739,"o":"m 501 407 q 477 607 501 549 q 396 664 454 664 q 316 608 340 664 q 292 419 292 551 l 292 407 l 501 407 m 739 326 l 292 326 l 292 321 q 330 119 292 181 q 452 57 368 57 q 566 98 522 57 q 621 218 609 140 l 723 218 q 618 38 696 96 q 400 -20 540 -20 q 141 79 231 -20 q 52 361 52 178 q 143 640 52 540 q 400 741 235 741 q 647 635 561 741 q 739 326 733 530 m 171 996 q 198 1065 171 1036 q 261 1095 224 1095 q 324 1065 298 1095 q 350 996 350 1036 q 323 925 350 955 q 261 896 297 896 q 198 926 224 896 q 171 996 171 956 m 444 996 q 470 1065 444 1036 q 534 1095 497 1095 q 597 1065 570 1095 q 624 996 624 1036 q 597 926 624 956 q 534 896 570 896 q 470 926 497 896 q 444 996 444 956 z "},"ì":{"ha":475,"x_min":11,"x_max":444,"o":"m 351 82 l 444 82 l 444 0 l 43 0 l 43 82 l 135 82 l 135 639 l 43 639 l 43 721 l 351 721 l 351 82 m 181 1111 l 338 856 l 239 856 l 11 1111 l 181 1111 z "},"í":{"ha":475,"x_min":43,"x_max":464,"o":"m 351 82 l 444 82 l 444 0 l 43 0 l 43 82 l 135 82 l 135 639 l 43 639 l 43 721 l 351 721 l 351 82 m 294 1111 l 464 1111 l 236 856 l 136 856 l 294 1111 z "},"î":{"ha":475,"x_min":7,"x_max":468,"o":"m 351 82 l 444 82 l 444 0 l 43 0 l 43 82 l 135 82 l 135 639 l 43 639 l 43 721 l 351 721 l 351 82 m 163 1111 l 311 1111 l 467 856 l 367 856 l 237 1008 l 107 856 l 7 856 l 163 1111 z "},"ï":{"ha":475,"x_min":11,"x_max":464,"o":"m 351 82 l 444 82 l 444 0 l 43 0 l 43 82 l 135 82 l 135 639 l 43 639 l 43 721 l 351 721 l 351 82 m 11 996 q 38 1065 11 1036 q 101 1095 64 1095 q 164 1065 138 1095 q 190 996 190 1036 q 163 925 190 955 q 101 896 137 896 q 38 926 64 896 q 11 996 11 956 m 283 996 q 310 1065 283 1036 q 374 1095 337 1095 q 437 1065 410 1095 q 464 996 464 1036 q 437 926 464 956 q 374 896 410 896 q 310 926 337 896 q 283 996 283 956 z "},"ð":{"ha":833,"x_min":51,"x_max":784,"o":"m 547 907 q 723 669 661 806 q 784 378 784 532 q 687 86 784 191 q 418 -20 589 -20 q 151 80 250 -20 q 52 345 52 179 q 149 603 52 500 q 395 705 246 705 q 447 701 420 705 q 500 689 473 697 q 467 769 487 732 q 418 842 448 806 l 224 741 l 193 808 l 363 897 q 286 944 332 923 q 178 981 239 965 l 195 1055 q 352 1019 280 1044 q 479 957 423 994 l 680 1061 l 709 991 l 547 907 m 511 604 q 460 623 483 617 q 418 629 437 629 q 321 565 350 629 q 292 345 292 500 q 321 121 292 186 q 418 57 350 57 q 513 121 486 57 q 541 345 541 184 q 534 482 541 417 q 511 604 526 547 z "},"ñ":{"ha":909,"x_min":43,"x_max":880,"o":"m 43 0 l 43 82 l 135 82 l 135 639 l 43 639 l 43 721 l 351 721 l 351 619 q 440 712 390 684 q 566 741 490 741 q 731 669 675 741 q 787 458 787 597 l 787 82 l 880 82 l 880 0 l 492 0 l 492 82 l 571 82 l 571 465 q 550 592 571 557 q 477 628 529 628 q 382 575 412 628 q 351 406 351 522 l 351 82 l 430 82 l 430 0 l 43 0 m 226 888 l 226 899 q 258 1049 226 998 q 353 1100 290 1100 q 397 1092 375 1100 q 446 1063 418 1083 l 490 1031 l 492 1029 q 541 1010 519 1010 q 581 1034 566 1010 q 595 1099 595 1057 l 663 1099 l 663 1088 q 630 938 663 989 q 536 886 598 886 q 491 895 513 886 q 441 924 470 903 l 397 956 l 397 956 q 348 977 370 977 q 308 953 323 977 q 293 888 293 929 l 226 888 z "},"ò":{"ha":833,"x_min":51,"x_max":784,"o":"m 418 57 q 513 122 486 57 q 541 361 541 187 q 514 599 541 534 q 418 664 486 664 q 320 598 349 664 q 292 361 292 533 q 320 123 292 189 q 418 57 349 57 m 418 -20 q 149 82 246 -20 q 52 361 52 183 q 149 640 52 539 q 418 741 246 741 q 687 640 589 741 q 784 361 784 539 q 686 82 784 183 q 418 -20 589 -20 m 361 1111 l 519 856 l 419 856 l 191 1111 l 361 1111 z "},"ó":{"ha":833,"x_min":51,"x_max":784,"o":"m 418 57 q 513 122 486 57 q 541 361 541 187 q 514 599 541 534 q 418 664 486 664 q 320 598 349 664 q 292 361 292 533 q 320 123 292 189 q 418 57 349 57 m 418 -20 q 149 82 246 -20 q 52 361 52 183 q 149 640 52 539 q 418 741 246 741 q 687 640 589 741 q 784 361 784 539 q 686 82 784 183 q 418 -20 589 -20 m 474 1111 l 644 1111 l 416 856 l 316 856 l 474 1111 z "},"ô":{"ha":833,"x_min":51,"x_max":784,"o":"m 418 57 q 513 122 486 57 q 541 361 541 187 q 514 599 541 534 q 418 664 486 664 q 320 598 349 664 q 292 361 292 533 q 320 123 292 189 q 418 57 349 57 m 418 -20 q 149 82 246 -20 q 52 361 52 183 q 149 640 52 539 q 418 741 246 741 q 687 640 589 741 q 784 361 784 539 q 686 82 784 183 q 418 -20 589 -20 m 344 1111 l 492 1111 l 648 856 l 547 856 l 418 1008 l 288 856 l 188 856 l 344 1111 z "},"õ":{"ha":833,"x_min":51,"x_max":784,"o":"m 418 57 q 513 122 486 57 q 541 361 541 187 q 514 599 541 534 q 418 664 486 664 q 320 598 349 664 q 292 361 292 533 q 320 123 292 189 q 418 57 349 57 m 418 -20 q 149 82 246 -20 q 52 361 52 183 q 149 640 52 539 q 418 741 246 741 q 687 640 589 741 q 784 361 784 539 q 686 82 784 183 q 418 -20 589 -20 m 199 888 l 199 899 q 232 1049 199 998 q 326 1100 264 1100 q 370 1092 349 1100 q 420 1063 392 1083 l 463 1031 l 465 1029 q 514 1010 492 1010 q 554 1034 539 1010 q 569 1099 569 1057 l 636 1099 l 636 1088 q 604 938 636 989 q 509 886 572 886 q 465 895 486 886 q 415 924 444 903 l 371 956 l 371 956 q 321 977 343 977 q 281 953 296 977 q 267 888 267 929 l 199 888 z "},"ö":{"ha":833,"x_min":51,"x_max":784,"o":"m 418 57 q 513 122 486 57 q 541 361 541 187 q 514 599 541 534 q 418 664 486 664 q 320 598 349 664 q 292 361 292 533 q 320 123 292 189 q 418 57 349 57 m 418 -20 q 149 82 246 -20 q 52 361 52 183 q 149 640 52 539 q 418 741 246 741 q 687 640 589 741 q 784 361 784 539 q 686 82 784 183 q 418 -20 589 -20 m 191 996 q 218 1065 191 1036 q 281 1095 245 1095 q 344 1065 318 1095 q 370 996 370 1036 q 344 925 370 955 q 281 896 317 896 q 218 926 245 896 q 191 996 191 956 m 464 996 q 491 1065 464 1036 q 554 1095 517 1095 q 617 1065 591 1095 q 644 996 644 1036 q 617 926 644 956 q 554 896 591 896 q 491 926 517 896 q 464 996 464 956 z "},"÷":{"ha":1047,"x_min":132,"x_max":916,"o":"m 433 686 q 459 758 433 728 q 524 787 486 787 q 588 758 562 787 q 615 686 615 728 q 588 614 615 644 q 524 585 562 585 q 459 614 486 585 q 433 686 433 644 m 433 184 q 459 256 433 227 q 524 286 486 286 q 588 256 562 286 q 615 184 615 227 q 588 113 615 143 q 524 83 562 83 q 459 113 486 83 q 433 184 433 143 m 132 513 l 915 513 l 915 358 l 132 358 l 132 513 z "},"ø":{"ha":833,"x_min":31,"x_max":803,"o":"m 294 282 l 530 543 q 492 634 519 604 q 418 664 465 664 q 322 599 351 664 q 294 375 294 534 l 294 282 m 305 178 q 342 87 315 117 q 418 57 370 57 q 512 121 484 57 q 540 345 540 184 l 540 440 l 305 178 m 703 619 q 763 506 743 570 q 784 361 784 441 q 686 82 784 183 q 418 -20 589 -20 q 293 -3 350 -20 q 187 47 236 14 l 83 -69 l 31 -11 l 132 100 q 72 216 92 151 q 52 361 52 281 q 149 640 52 539 q 418 741 246 741 q 546 724 488 741 q 648 673 604 707 l 750 787 l 803 729 l 703 619 z "},"ù":{"ha":909,"x_min":28,"x_max":867,"o":"m 774 721 l 774 82 l 866 82 l 866 0 l 557 0 l 557 102 q 469 9 519 37 q 342 -20 418 -20 q 177 52 233 -20 q 121 262 121 123 l 121 639 l 28 639 l 28 721 l 338 721 l 338 300 q 358 129 338 165 q 431 93 378 93 q 527 146 497 93 q 557 317 557 200 l 557 639 l 479 639 l 479 721 l 774 721 m 376 1111 l 533 856 l 433 856 l 205 1111 l 376 1111 z "},"ú":{"ha":909,"x_min":28,"x_max":867,"o":"m 774 721 l 774 82 l 866 82 l 866 0 l 557 0 l 557 102 q 469 9 519 37 q 342 -20 418 -20 q 177 52 233 -20 q 121 262 121 123 l 121 639 l 28 639 l 28 721 l 338 721 l 338 300 q 358 129 338 165 q 431 93 378 93 q 527 146 497 93 q 557 317 557 200 l 557 639 l 479 639 l 479 721 l 774 721 m 488 1111 l 659 1111 l 431 856 l 330 856 l 488 1111 z "},"û":{"ha":909,"x_min":28,"x_max":867,"o":"m 774 721 l 774 82 l 866 82 l 866 0 l 557 0 l 557 102 q 469 9 519 37 q 342 -20 418 -20 q 177 52 233 -20 q 121 262 121 123 l 121 639 l 28 639 l 28 721 l 338 721 l 338 300 q 358 129 338 165 q 431 93 378 93 q 527 146 497 93 q 557 317 557 200 l 557 639 l 479 639 l 479 721 l 774 721 m 358 1111 l 506 1111 l 662 856 l 562 856 l 432 1008 l 302 856 l 202 856 l 358 1111 z "},"ü":{"ha":909,"x_min":28,"x_max":867,"o":"m 774 721 l 774 82 l 866 82 l 866 0 l 557 0 l 557 102 q 469 9 519 37 q 342 -20 418 -20 q 177 52 233 -20 q 121 262 121 123 l 121 639 l 28 639 l 28 721 l 338 721 l 338 300 q 358 129 338 165 q 431 93 378 93 q 527 146 497 93 q 557 317 557 200 l 557 639 l 479 639 l 479 721 l 774 721 m 205 996 q 232 1065 205 1036 q 296 1095 259 1095 q 358 1065 332 1095 q 385 996 385 1036 q 358 925 385 955 q 296 896 332 896 q 232 926 259 896 q 205 996 205 956 m 478 996 q 505 1065 478 1036 q 568 1095 532 1095 q 632 1065 605 1095 q 659 996 659 1036 q 632 926 659 956 q 568 896 605 896 q 505 926 532 896 q 478 996 478 956 z "},"ý":{"ha":726,"x_min":-17,"x_max":757,"o":"m 390 -163 q 319 -275 361 -242 q 208 -309 278 -309 q 141 -301 178 -309 q 61 -279 104 -294 l 61 -129 l 130 -130 q 152 -207 132 -182 q 214 -232 173 -232 q 278 -208 254 -232 q 327 -117 302 -184 l 336 -92 l 54 639 l -16 639 l -16 721 l 357 721 l 357 639 l 280 639 l 445 212 l 599 639 l 513 639 l 513 721 l 756 721 l 756 639 l 677 639 l 390 -163 m 420 1111 l 591 1111 l 363 856 l 262 856 l 420 1111 z "},"þ":{"ha":873,"x_min":28,"x_max":824,"o":"m 338 396 l 338 325 q 367 142 338 199 q 460 86 395 86 q 554 146 527 86 q 581 361 581 205 q 554 575 581 516 q 460 635 527 635 q 367 578 395 635 q 338 396 338 522 m 121 974 l 28 974 l 28 1055 l 338 1055 l 338 629 q 411 713 365 686 q 526 741 458 741 q 744 639 665 741 q 824 361 824 538 q 744 82 824 184 q 526 -20 665 -20 q 411 8 458 -20 q 338 92 365 35 l 338 -207 l 437 -207 l 437 -289 l 28 -289 l 28 -207 l 121 -207 l 121 974 z "},"ÿ":{"ha":726,"x_min":-17,"x_max":757,"o":"m 390 -163 q 319 -275 361 -242 q 208 -309 278 -309 q 141 -301 178 -309 q 61 -279 104 -294 l 61 -129 l 130 -130 q 152 -207 132 -182 q 214 -232 173 -232 q 278 -208 254 -232 q 327 -117 302 -184 l 336 -92 l 54 639 l -16 639 l -16 721 l 357 721 l 357 639 l 280 639 l 445 212 l 599 639 l 513 639 l 513 721 l 756 721 l 756 639 l 677 639 l 390 -163 m 138 996 q 164 1065 138 1036 q 228 1095 191 1095 q 291 1065 264 1095 q 317 996 317 1036 q 290 925 317 955 q 228 896 264 896 q 164 926 191 896 q 138 996 138 956 m 410 996 q 437 1065 410 1036 q 500 1095 464 1095 q 564 1065 537 1095 q 591 996 591 1036 q 564 926 591 956 q 500 896 537 896 q 437 926 464 896 q 410 996 410 956 z "},"Ā":{"ha":970,"x_min":-10,"x_max":984,"o":"m 288 1270 l 673 1270 l 673 1142 l 288 1142 l 288 1270 m -9 0 l -9 82 l 64 82 l 408 1013 l 553 1013 l 897 82 l 984 82 l 984 0 l 557 0 l 557 82 l 646 82 l 571 289 l 229 289 l 153 82 l 261 82 l 261 0 l -9 0 m 259 371 l 541 371 l 401 758 l 259 371 z "}}}
